<svg width="26" height="26" viewBox="0 0 26 26" fill="none" xmlns="http://www.w3.org/2000/svg">
<path d="M13 0C5.83177 0 0 5.83177 0 13C0 20.1682 5.83177 26 13 26C20.1682 26 26 20.1682 26 13C26 5.83177 20.1682 0 13 0ZM5.04364 10.3427C4.90765 9.94459 5.12012 9.51163 5.51825 9.37569C5.91642 9.2397 6.34928 9.45227 6.48527 9.85029C6.73451 10.58 7.42011 11.0703 8.19122 11.0703C8.96182 11.0703 9.64722 10.5804 9.89676 9.85146C10.033 9.45349 10.4661 9.24122 10.8641 9.37752C11.2621 9.51377 11.4743 9.94688 11.3381 10.3449C10.8776 11.69 9.61299 12.5938 8.19122 12.5938C6.76843 12.5938 5.50352 11.6891 5.04364 10.3427ZM17.9705 18.6055C17.8483 18.6784 17.7139 18.713 17.5813 18.713C17.3217 18.713 17.0687 18.5802 16.9263 18.341C16.1063 16.9649 14.6019 16.11 13.0001 16.11C11.4027 16.11 9.90047 16.9612 9.07953 18.3315C8.86331 18.6923 8.39556 18.8097 8.03466 18.5934C7.67381 18.3772 7.5565 17.9094 7.77273 17.5485C8.86732 15.7216 10.8703 14.5866 13.0001 14.5866C15.1359 14.5866 17.1418 15.7264 18.235 17.5612C18.4502 17.9227 18.3319 18.3902 17.9705 18.6055ZM20.9604 10.3449C20.4998 11.69 19.2352 12.5938 17.8135 12.5938C16.3907 12.5938 15.1258 11.6891 14.6659 10.3428C14.5299 9.94464 14.7424 9.51168 15.1405 9.37574C15.5388 9.23975 15.9716 9.45232 16.1076 9.85034C16.3568 10.5801 17.0424 11.0703 17.8136 11.0703C18.5841 11.0703 19.2695 10.5805 19.5191 9.85151C19.6554 9.45354 20.0887 9.24143 20.4865 9.37757C20.8844 9.51382 21.0966 9.94688 20.9604 10.3449Z" fill="#F14D4D"/>
</svg>