<?xml version="1.0" encoding="utf-8"?>
<!-- Generator: Adobe Illustrator 24.2.3, SVG Export Plug-In . SVG Version: 6.00 Build 0)  -->
<svg version="1.1" id="Layer_1" xmlns="http://www.w3.org/2000/svg" xmlns:xlink="http://www.w3.org/1999/xlink" x="0px" y="0px"
	 viewBox="0 0 178.2 151.6" style="enable-background:new 0 0 178.2 151.6;" xml:space="preserve">
<g>
	<path d="M76.4,12.4c34.7,0,63,28.3,63,63s-28.3,63-63,63s-63-28.3-63-63S41.7,12.4,76.4,12.4 M76.4,0.4c-41.4,0-75,33.6-75,75
		s33.6,75,75,75s75-33.6,75-75S117.8,0.4,76.4,0.4L76.4,0.4z"/>
</g>
<g>
	<path d="M126.4,37.4c21,0,38,17,38,38s-17,38-38,38s-38-17-38-38S105.4,37.4,126.4,37.4 M126.4,25.4c-27.6,0-50,22.4-50,50
		s22.4,50,50,50s50-22.4,50-50S154,25.4,126.4,25.4L126.4,25.4z"/>
</g>
<g>
	<path d="M151.4,75.4c0,19-7.1,36.4-18.8,49.6c-2,0.3-4.1,0.4-6.2,0.4c-27.6,0-50-22.4-50-50s22.4-50,50-50c2.1,0,4.2,0.1,6.2,0.4
		C144.3,39,151.4,56.4,151.4,75.4z"/>
</g>
</svg>
