<?xml version="1.0" encoding="utf-8"?>
<!-- Generator: Adobe Illustrator 24.2.3, SVG Export Plug-In . SVG Version: 6.00 Build 0)  -->
<svg version="1.1" id="Layer_1" xmlns="http://www.w3.org/2000/svg" xmlns:xlink="http://www.w3.org/1999/xlink" x="0px" y="0px"
	 viewBox="0 0 500 500" style="enable-background:new 0 0 500 500;" xml:space="preserve">
<style type="text/css">
	.st0{fill:none;stroke:#000000;stroke-width:0.79;}
	.st1{fill:none;stroke:#000000;stroke-width:0.5249;stroke-miterlimit:10;}
	.st2{fill:#FFFFFF;}
	.st3{fill:none;stroke:#000000;stroke-width:0.6155;stroke-miterlimit:10;}
	.st4{fill:none;stroke:#000000;stroke-width:0.9297;stroke-miterlimit:10;}
</style>
<g>
	<g>
		<path class="st0" d="M47.8,35.5c2.4,2.4,3.6,5.6,3.6,9.6c0,2.8-0.5,5.1-1.5,7.1s-2.4,3.5-4.2,4.6s-3.8,1.6-6,1.6
			c-2.1,0-4.1-0.6-6-1.7c-1.9-1.1-3.8-2.7-5.7-4.8v5.6h-7v-17l4.9-0.3c1.7,2.9,3.8,5.2,6.4,7c2.5,1.8,4.8,2.7,6.9,2.7
			c1.2,0,2.2-0.3,2.9-0.9c0.7-0.6,1.1-1.5,1.1-2.6c0-1.4-0.8-2.7-2.4-3.9c-1.6-1.2-4.4-2.5-8.3-4s-6.8-3.5-8.6-5.9
			c-1.8-2.4-2.7-5.5-2.7-9.1c0-2.7,0.5-5,1.6-7s2.5-3.6,4.3-4.7c1.6-1.2,3.5-1.8,5.5-1.8c4,0,7.4,1.7,10.1,5.2V11h6.9v16.5L45,27.8
			c-1.1-2.9-2.6-5.1-4.5-6.8s-3.9-2.4-5.8-2.4c-1.6,0-2.8,0.4-3.8,1.2c-1,0.8-1.4,1.8-1.4,3.1c0,1.3,0.6,2.4,1.8,3.3s3.4,2,6.6,3.2
			C42,31.1,45.4,33.1,47.8,35.5z"/>
		<path class="st0" d="M81.4,12.8c2,1.2,3.6,3,4.7,5.3s1.7,4.9,1.7,7.9c0,3.1-0.5,5.9-1.6,8.2c-1.1,2.4-2.7,4.2-4.7,5.5
			s-4.4,2-7.1,2h-6.6v7.1h6v8.6H54.6v-8.6h5.5V19.6h-5.5V11h19.7C77,11,79.3,11.6,81.4,12.8z M80,25.9c0-2.3-0.6-3.9-1.8-4.9
			c-1.2-1-2.7-1.4-4.4-1.4h-5.9v13.5l6.1,0.1C78,33.2,80,30.7,80,25.9z"/>
		<path class="st0" d="M118.4,28.3v-8.7h-14.5v11.3h5.1v-5.4h5.8V44H109v-5.4h-5.1v10.3h14.5v-8.7h6.9v17.3H90.7v-8.6h5.4V19.6h-5.4
			V11h34.7v17.3H118.4z"/>
		<path class="st0" d="M164.4,46.5c-1.8,3.8-4,6.7-6.7,8.8s-5.7,3.1-9.2,3.1c-3.4,0-6.5-1.1-9.3-3.2c-2.8-2.1-5-5-6.6-8.7
			s-2.4-7.7-2.4-12.2c0-4.7,0.8-8.9,2.3-12.6s3.5-6.6,6.1-8.7c2.5-2.1,5.3-3.1,8.3-3.1c3.8,0,7,1.7,9.6,5V11h7.1v16.2l-5.2,0.7
			c-0.9-2.7-2.2-4.9-3.9-6.7c-1.7-1.7-3.8-2.6-6.3-2.6c-1.7,0-3.2,0.6-4.7,1.9c-1.5,1.2-2.7,3-3.5,5.4c-0.9,2.4-1.3,5.1-1.3,8.3
			c0,2.8,0.4,5.4,1.3,7.7c0.9,2.3,2.1,4.2,3.6,5.5c1.5,1.4,3.2,2,5.1,2c2.5,0,4.5-0.7,6.2-2.2c1.6-1.5,3.2-3.7,4.6-6.6L164.4,46.5z"
			/>
		<path class="st0" d="M180.7,19.6v29.3h5.5v8.6h-18.9v-8.6h5.5V19.6h-5.5V11h18.9v8.6H180.7z"/>
		<path class="st0" d="M228,48.9v8.6h-17.1v-8.6h4.9l-1.9-6.8h-12.3l-1.8,6.8h5.4v8.6h-16.8v-8.6h4l9-29.4H198V11h20.3v8.6h-3.4
			L224,49L228,48.9L228,48.9z M211.9,34.5l-4.1-15l0,0l-4.1,15H211.9z"/>
		<path class="st0" d="M262.8,38v19.6h-32.6V49h5.5V19.6h-5.5V11H249v8.6h-5.4v29.3h11.8V38H262.8z"/>
		<path class="st0" d="M289.9,55.2c-2.8-2.1-5-5.1-6.6-8.8s-2.4-7.8-2.4-12.2s0.8-8.5,2.4-12.2s3.8-6.6,6.6-8.8
			c2.8-2.1,5.9-3.2,9.4-3.2c3.4,0,6.5,1.1,9.3,3.2s5,5.1,6.6,8.8s2.4,7.8,2.4,12.2s-0.8,8.5-2.4,12.2s-3.8,6.6-6.6,8.8
			c-2.8,2.2-5.9,3.2-9.3,3.2C295.8,58.4,292.7,57.3,289.9,55.2z M304.6,47.5c1.5-1.4,2.7-3.2,3.5-5.6c0.8-2.3,1.2-4.9,1.2-7.6
			c0-2.8-0.4-5.4-1.2-7.7c-0.8-2.3-2-4.2-3.5-5.6s-3.3-2.1-5.3-2.1c-2.1,0-3.9,0.7-5.4,2.1s-2.7,3.3-3.5,5.6s-1.2,4.9-1.2,7.6
			c0,2.8,0.4,5.4,1.2,7.7c0.8,2.3,2,4.2,3.5,5.5c1.5,1.4,3.3,2,5.4,2C301.3,49.5,303.1,48.8,304.6,47.5z"/>
		<path class="st0" d="M353.8,11v17.9h-6.9v-9.3H334V31h4.3v-5.4h5.8v18.5h-5.8v-5.4H334v10.2h5.9v8.6h-19.1v-8.6h5.5V19.6h-5.5V11
			H353.8z"/>
		<path class="st0" d="M390,11v17.9h-6.9v-9.3h-12.8V31h4.3v-5.4h5.8v18.5h-5.8v-5.4h-4.3v10.2h5.9v8.6H357v-8.6h5.5V19.6H357V11
			H390z"/>
		<path class="st0" d="M420.9,28.3v-8.7h-14.5v11.3h5.1v-5.4h5.8V44h-5.8v-5.4h-5.1v10.3h14.5v-8.7h6.9v17.3h-34.7v-8.6h5.4V19.6
			h-5.4V11h34.7v17.3H420.9z"/>
		<path class="st0" d="M471.4,53.6c-0.9,1.4-2,2.6-3.2,3.5s-2.6,1.4-4.3,1.4c-3.1,0-5.7-1.5-7.8-4.5c-2.1-3-3.6-7.7-4.7-14.1
			l-0.1-0.9h-5.2v10h5.2v8.6h-18.6V49h5.5V19.6h-5.5V11h20.1c4,0,7.3,1.2,9.7,3.6c2.4,2.4,3.7,5.8,3.7,10.3c0,3.5-0.7,6.4-2.1,8.7
			s-3.4,3.9-5.9,4.7l0.2,1c0.8,3.4,1.7,5.8,2.7,7.1s2.1,2,3.3,2c0.7,0,1.3-0.2,1.9-0.5c0.5-0.3,1-0.8,1.5-1.5L471.4,53.6z
			 M446.1,30.9h6.9c1.4,0,2.6-0.5,3.7-1.4c1.1-1,1.6-2.5,1.6-4.6c0-1.9-0.5-3.3-1.6-4.1c-1.1-0.8-2.3-1.2-3.7-1.2h-6.9V30.9z"/>
	</g>
	<path class="st1" d="M179.5,196.6H45.7c-1.9,0-3.5,1.6-3.5,3.5v34.3c0,1.9,1.6,3.5,3.5,3.5h133.8c1.9,0,3.5-1.6,3.5-3.5v-34.3
		C183,198.2,181.4,196.6,179.5,196.6z"/>
	<path class="st1" d="M179.5,258.6H45.7c-1.9,0-3.5,1.6-3.5,3.5v34.3c0,1.9,1.6,3.5,3.5,3.5h133.8c1.9,0,3.5-1.6,3.5-3.5v-34.3
		C183,260.2,181.4,258.6,179.5,258.6z"/>
	<path class="st1" d="M179.5,320.6H45.7c-1.9,0-3.5,1.6-3.5,3.5v34.3c0,1.9,1.6,3.5,3.5,3.5h133.8c1.9,0,3.5-1.6,3.5-3.5v-34.3
		C183,322.1,181.4,320.6,179.5,320.6z"/>
	<path class="st1" d="M179.5,382.5H45.7c-1.9,0-3.5,1.6-3.5,3.5v34.3c0,1.9,1.6,3.5,3.5,3.5h133.8c1.9,0,3.5-1.6,3.5-3.5V386
		C183,384.1,181.4,382.5,179.5,382.5z"/>
	<path class="st1" d="M179.5,444.5H45.7c-1.9,0-3.5,1.6-3.5,3.5v34.3c0,1.9,1.6,3.5,3.5,3.5h133.8c1.9,0,3.5-1.6,3.5-3.5V448
		C183,446.1,181.4,444.5,179.5,444.5z"/>
	<g>
		<g>
			<path d="M256.1,343.7v7.5h-21.9v-7.5h7.7v-18.6c-1.7,1.7-4.3,3.2-7.7,4.3l-1.9-7c4.4-1.7,7.5-4.2,9.5-7.7h8.9v29L256.1,343.7
				L256.1,343.7z"/>
		</g>
		<g>
			<path d="M246.2,418.2v3.1h-1.1v-2H241v3.2h1.9v-1.3h1v3.6h-1v-1.3H241v2.9h1.6v1.1h-4.4v-1.1h1.6v-7.2h-1.6v-1.1L246.2,418.2
				L246.2,418.2z"/>
			<path d="M267.9,426.6c-0.8,0.8-1.7,1.2-2.6,1.2c-0.5,0-1.1-0.1-1.5-0.4c-0.5-0.3-0.9-0.6-1.2-1.1c-0.3-0.5-0.4-1.1-0.4-1.8
				c0-0.7,0.2-1.4,0.5-1.9s0.7-1,1.2-1.2c0.5-0.3,1-0.4,1.5-0.4s0.9,0.1,1.3,0.3c0.4,0.2,0.7,0.4,0.9,0.7c0.2,0.3,0.3,0.7,0.3,1.1
				c0,0.6-0.2,1.1-0.7,1.4s-1,0.5-1.6,0.5c-0.4,0-0.8,0-1.1-0.1c-0.4-0.1-0.7-0.2-1.1-0.4v0.1c0,0.4,0.1,0.8,0.3,1.1
				c0.2,0.3,0.4,0.6,0.7,0.8c0.3,0.2,0.6,0.3,1,0.3c0.8,0,1.5-0.3,2.2-0.9L267.9,426.6z M264.2,422.4c-0.4,0.3-0.6,0.7-0.8,1.2
				c0.6,0.2,1.2,0.4,1.8,0.4c0.4,0,0.7-0.1,1-0.3c0.3-0.2,0.4-0.4,0.4-0.7c0-0.3-0.1-0.5-0.3-0.7c-0.2-0.2-0.5-0.3-0.9-0.3
				C265,422,264.6,422.2,264.2,422.4z"/>
			<path d="M290.4,426.6c-0.8,0.8-1.7,1.2-2.6,1.2c-0.5,0-1.1-0.1-1.5-0.4c-0.5-0.3-0.9-0.6-1.2-1.1c-0.3-0.5-0.4-1.1-0.4-1.8
				c0-0.7,0.2-1.4,0.5-1.9s0.7-1,1.2-1.2c0.5-0.3,1-0.4,1.5-0.4s0.9,0.1,1.3,0.3c0.4,0.2,0.7,0.4,0.9,0.7c0.2,0.3,0.3,0.7,0.3,1.1
				c0,0.6-0.2,1.1-0.7,1.4s-1,0.5-1.6,0.5c-0.4,0-0.8,0-1.1-0.1c-0.4-0.1-0.7-0.2-1.1-0.4v0.1c0,0.4,0.1,0.8,0.3,1.1
				c0.2,0.3,0.4,0.6,0.7,0.8c0.3,0.2,0.6,0.3,1,0.3c0.8,0,1.5-0.3,2.2-0.9L290.4,426.6z M286.6,422.4c-0.4,0.3-0.6,0.7-0.8,1.2
				c0.6,0.2,1.2,0.4,1.8,0.4c0.4,0,0.7-0.1,1-0.3c0.3-0.2,0.4-0.4,0.4-0.7c0-0.3-0.1-0.5-0.3-0.7c-0.2-0.2-0.5-0.3-0.9-0.3
				C287.4,422,287,422.2,286.6,422.4z"/>
		</g>
		<g>
			<path d="M263.8,340c-1-0.2-1.9-0.6-2.6-1.2c-0.8-0.6-1.3-1.4-1.6-2.4c-0.3-1-0.3-2,0-2.9s0.8-1.8,1.6-2.5
				c0.7-0.7,1.6-1.2,2.6-1.5s2-0.4,3-0.2c0.9,0.2,1.8,0.5,2.5,1.2c0.7,0.6,1.2,1.5,1.5,2.5s0.3,1.9,0,2.9c-0.3,0.9-0.8,1.8-1.5,2.5
				s-1.6,1.2-2.6,1.5C265.7,340.2,264.8,340.2,263.8,340z M266.8,335.5c0.2-0.4,0.3-0.9,0.2-1.4c-0.1-0.5-0.4-0.9-0.8-1.1
				s-0.9-0.2-1.4-0.1c-0.5,0.2-0.9,0.4-1.1,0.9c-0.3,0.4-0.3,0.9-0.2,1.4c0.1,0.5,0.4,0.8,0.9,1c0.4,0.2,0.9,0.2,1.4,0.1
				C266.2,336.2,266.6,335.9,266.8,335.5z M265.3,350l13.6-25.9l3,1.6l-13.6,25.9L265.3,350z M280.7,346.4c-1-0.2-1.8-0.5-2.5-1.2
				c-0.7-0.6-1.2-1.5-1.5-2.5s-0.3-1.9,0-2.9s0.8-1.8,1.5-2.5s1.6-1.2,2.6-1.5s1.9-0.4,2.9-0.2c1,0.2,1.8,0.6,2.6,1.2
				c0.8,0.6,1.3,1.4,1.5,2.4c0.3,1,0.3,2,0,2.9s-0.8,1.8-1.5,2.5s-1.6,1.2-2.5,1.5C282.6,346.5,281.6,346.6,280.7,346.4z
				 M283.8,341.8c0.3-0.4,0.3-0.9,0.2-1.4c-0.1-0.5-0.4-0.9-0.9-1.1s-0.9-0.3-1.4-0.1c-0.5,0.2-0.9,0.5-1.1,0.9s-0.3,0.9-0.2,1.4
				c0.1,0.5,0.4,0.9,0.8,1.1s0.9,0.2,1.4,0.1C283.1,342.6,283.5,342.3,283.8,341.8z"/>
		</g>
	</g>
	<g>
		<g>
			<path d="M256.8,274.7v12.4H231v-7.3l0,0c0.2-2.8,1.2-5.3,3.1-7.4c1.9-2.1,4.6-3.9,8.1-5.4c1.9-0.8,3.3-1.5,4.3-2
				c0.9-0.5,1.6-1,1.9-1.5c0.3-0.5,0.5-1,0.6-1.6c0-1.1-0.4-2-1.3-2.8c-0.8-0.7-2-1.1-3.6-1.1c-1.5,0-3.2,0.5-4.8,1.5
				c-1.7,1-3.3,2.3-4.8,4l-3.6-5.3c1.8-2.2,3.9-4,6.4-5.4c2.4-1.4,4.9-2.1,7.5-2.1c2,0,3.9,0.4,5.6,1.3c1.8,0.9,3.2,2.2,4.3,3.8
				s1.6,3.7,1.6,6c0,2.9-0.9,5.2-2.7,7s-4.5,3.4-8.2,5c-2.4,1-4.2,1.9-5.2,2.8c-1.1,0.9-1.7,1.9-1.9,3.2h12.8v-5.1H256.8z"/>
		</g>
		<g>
			<path d="M243.9,355.3v2.9h-1v-1.8H239v2.9h1.8v-1.2h0.9v3.4h-0.9v-1.2H239v2.7h1.5v1.1h-4.1V363h1.4v-6.6h-1.4v-1.1H243.9z"/>
			<path d="M264,363.1c-0.7,0.7-1.5,1.1-2.5,1.1c-0.5,0-1-0.1-1.4-0.4c-0.4-0.2-0.8-0.6-1.1-1c-0.3-0.5-0.4-1-0.4-1.6
				c0-0.7,0.1-1.3,0.4-1.8s0.7-0.9,1.1-1.2c0.5-0.3,0.9-0.4,1.4-0.4c0.4,0,0.8,0.1,1.2,0.2c0.3,0.2,0.6,0.4,0.8,0.7
				c0.2,0.3,0.3,0.6,0.3,1c0,0.6-0.2,1-0.6,1.3s-0.9,0.5-1.5,0.5c-0.4,0-0.7,0-1.1-0.1c-0.3-0.1-0.7-0.2-1-0.4v0.1
				c0,0.4,0.1,0.8,0.3,1.1c0.2,0.3,0.4,0.5,0.7,0.7c0.3,0.2,0.6,0.2,0.9,0.2c0.8,0,1.4-0.3,2-0.8L264,363.1z M260.5,359.2
				c-0.3,0.3-0.6,0.6-0.7,1.1c0.6,0.2,1.1,0.3,1.7,0.3c0.4,0,0.7-0.1,0.9-0.2c0.2-0.2,0.4-0.4,0.4-0.7c0-0.3-0.1-0.5-0.3-0.7
				c-0.2-0.2-0.5-0.3-0.8-0.3C261.3,358.9,260.9,359,260.5,359.2z"/>
			<path d="M284.8,363.1c-0.7,0.7-1.5,1.1-2.5,1.1c-0.5,0-1-0.1-1.4-0.4c-0.4-0.2-0.8-0.6-1.1-1c-0.3-0.5-0.4-1-0.4-1.6
				c0-0.7,0.1-1.3,0.4-1.8s0.7-0.9,1.1-1.2c0.5-0.3,0.9-0.4,1.4-0.4c0.4,0,0.8,0.1,1.2,0.2c0.3,0.2,0.6,0.4,0.8,0.7
				c0.2,0.3,0.3,0.6,0.3,1c0,0.6-0.2,1-0.6,1.3s-0.9,0.5-1.5,0.5c-0.4,0-0.7,0-1.1-0.1c-0.3-0.1-0.7-0.2-1-0.4v0.1
				c0,0.4,0.1,0.8,0.3,1.1c0.2,0.3,0.4,0.5,0.7,0.7c0.3,0.2,0.6,0.2,0.9,0.2c0.8,0,1.4-0.3,2-0.8L284.8,363.1z M281.4,359.2
				c-0.3,0.3-0.6,0.6-0.7,1.1c0.6,0.2,1.1,0.3,1.7,0.3c0.4,0,0.7-0.1,0.9-0.2c0.2-0.2,0.4-0.4,0.4-0.7c0-0.3-0.1-0.5-0.3-0.7
				c-0.2-0.2-0.5-0.3-0.8-0.3C282.1,358.9,281.7,359,281.4,359.2z"/>
		</g>
		<g>
			<path d="M263.9,278.1c-1-0.2-1.9-0.6-2.6-1.2c-0.8-0.6-1.3-1.4-1.6-2.4c-0.3-1-0.3-2,0-2.9s0.8-1.8,1.6-2.5
				c0.7-0.7,1.6-1.2,2.6-1.5s2-0.4,3-0.2c0.9,0.2,1.8,0.5,2.5,1.2c0.7,0.6,1.2,1.5,1.5,2.5s0.3,1.9,0,2.9c-0.3,0.9-0.8,1.8-1.5,2.5
				s-1.6,1.2-2.6,1.5C265.9,278.3,264.9,278.3,263.9,278.1z M266.9,273.6c0.2-0.4,0.3-0.9,0.2-1.4c-0.1-0.5-0.4-0.9-0.8-1.1
				s-0.9-0.2-1.4-0.1c-0.5,0.2-0.9,0.4-1.1,0.9c-0.3,0.4-0.3,0.9-0.2,1.4c0.1,0.5,0.4,0.8,0.9,1s0.9,0.2,1.4,0.1
				C266.3,274.3,266.7,274,266.9,273.6z M265.4,288.1l13.6-25.9l3,1.6l-13.6,25.9L265.4,288.1z M280.8,284.5c-1-0.2-1.8-0.5-2.5-1.2
				c-0.7-0.6-1.2-1.5-1.5-2.5s-0.3-1.9,0-2.9s0.8-1.8,1.5-2.5s1.6-1.2,2.6-1.5s1.9-0.4,2.9-0.2c1,0.2,1.8,0.6,2.6,1.2
				c0.7,0.6,1.3,1.4,1.5,2.4c0.3,1,0.3,2,0,2.9s-0.8,1.8-1.5,2.5s-1.6,1.2-2.5,1.5C282.8,284.6,281.8,284.7,280.8,284.5z
				 M283.9,279.9c0.3-0.4,0.3-0.9,0.2-1.4c-0.1-0.5-0.4-0.9-0.9-1.1s-0.9-0.3-1.4-0.1c-0.5,0.2-0.9,0.5-1.1,0.9s-0.3,0.9-0.2,1.4
				c0.1,0.5,0.4,0.9,0.8,1.1s0.9,0.2,1.4,0.1C283.3,280.7,283.6,280.4,283.9,279.9z"/>
		</g>
	</g>
	<g>
		<g>
			<path d="M237.3,478.7c-1.9-1.3-3.5-3.3-4.7-5.9s-1.8-5.8-1.8-9.5s0.6-6.9,1.9-9.5c1.2-2.6,2.8-4.6,4.8-5.9c1.9-1.3,3.9-2,6-2
				s4.1,0.7,6,2s3.5,3.3,4.8,5.9c1.2,2.6,1.9,5.8,1.9,9.5s-0.6,6.9-1.9,9.5c-1.3,2.6-2.9,4.6-4.8,5.9c-2,1.3-3.9,2-6,2
				C241.2,480.7,239.2,480,237.3,478.7z M246.5,472.9c1-0.9,1.7-2.2,2.3-3.8c0.6-1.7,0.9-3.6,0.9-5.8c0-2.2-0.3-4.2-0.8-5.8
				c-0.5-1.7-1.3-2.9-2.3-3.8s-2.1-1.3-3.3-1.3s-2.2,0.4-3.2,1.3s-1.7,2.2-2.3,3.9c-0.6,1.7-0.8,3.6-0.8,5.8s0.3,4.1,0.8,5.8
				c0.6,1.7,1.3,2.9,2.2,3.8s2,1.3,3.2,1.3S245.6,473.8,246.5,472.9z"/>
		</g>
		<g>
			<path d="M264.1,464.2c-1-0.2-1.9-0.6-2.6-1.2c-0.8-0.6-1.3-1.4-1.6-2.4c-0.3-1-0.3-2,0-2.9s0.8-1.8,1.6-2.5
				c0.7-0.7,1.6-1.2,2.6-1.5s2-0.4,3-0.2c0.9,0.2,1.8,0.5,2.5,1.2c0.7,0.6,1.2,1.5,1.5,2.5s0.3,1.9,0,2.9c-0.3,0.9-0.8,1.8-1.5,2.5
				s-1.6,1.2-2.6,1.5S265,464.4,264.1,464.2z M267.1,459.7c0.2-0.4,0.3-0.9,0.2-1.4c-0.1-0.5-0.4-0.9-0.8-1.1s-0.9-0.2-1.4-0.1
				c-0.5,0.2-0.9,0.4-1.1,0.9c-0.3,0.4-0.3,0.9-0.2,1.4c0.1,0.5,0.4,0.8,0.9,1s0.9,0.2,1.4,0.1C266.5,460.4,266.8,460.1,267.1,459.7
				z M265.5,474.2l13.6-25.9l3,1.6l-13.6,25.9L265.5,474.2z M280.9,470.6c-1-0.2-1.8-0.5-2.5-1.2c-0.7-0.6-1.2-1.5-1.5-2.5
				s-0.3-1.9,0-2.9s0.8-1.8,1.5-2.5s1.6-1.2,2.6-1.5s1.9-0.4,2.9-0.2c1,0.2,1.8,0.6,2.6,1.2c0.7,0.6,1.3,1.4,1.5,2.4
				c0.3,1,0.3,2,0,2.9s-0.8,1.8-1.5,2.5s-1.6,1.2-2.5,1.5C282.9,470.7,281.9,470.8,280.9,470.6z M284.1,466c0.3-0.4,0.3-0.9,0.2-1.4
				c-0.1-0.5-0.4-0.9-0.9-1.1s-0.9-0.3-1.4-0.1c-0.5,0.2-0.9,0.5-1.1,0.9s-0.3,0.9-0.2,1.4c0.1,0.5,0.4,0.9,0.8,1.1s0.9,0.2,1.4,0.1
				C283.4,466.7,283.8,466.5,284.1,466z"/>
		</g>
		<g>
			<path d="M243.8,485.2v2.9h-1v-1.8H239v2.9h1.8V488h0.9v3.3h-0.9v-1.2H239v2.7h1.5v1.1h-4.1v-1.1h1.4v-6.6h-1.4v-1.1h7.4
				L243.8,485.2L243.8,485.2z"/>
			<path d="M263.8,493.1c-0.7,0.7-1.5,1.1-2.4,1.1c-0.5,0-1-0.1-1.4-0.4c-0.4-0.2-0.8-0.6-1.1-1c-0.3-0.5-0.4-1-0.4-1.6
				c0-0.7,0.1-1.3,0.4-1.7c0.3-0.5,0.6-0.9,1.1-1.1c0.5-0.3,0.9-0.4,1.4-0.4c0.4,0,0.8,0.1,1.2,0.2c0.3,0.2,0.6,0.4,0.8,0.7
				c0.2,0.3,0.3,0.6,0.3,1c0,0.6-0.2,1-0.6,1.3s-0.9,0.5-1.5,0.5c-0.4,0-0.7,0-1.1-0.1c-0.3-0.1-0.7-0.2-1-0.4v0.1
				c0,0.4,0.1,0.7,0.2,1.1c0.2,0.3,0.4,0.5,0.7,0.7c0.3,0.2,0.6,0.2,0.9,0.2c0.8,0,1.4-0.3,2-0.8L263.8,493.1z M260.4,489.2
				c-0.3,0.3-0.6,0.6-0.7,1.1c0.6,0.2,1.1,0.3,1.7,0.3c0.4,0,0.7-0.1,0.9-0.2c0.2-0.2,0.4-0.4,0.4-0.7c0-0.3-0.1-0.5-0.3-0.7
				s-0.5-0.3-0.8-0.3C261.1,488.8,260.7,488.9,260.4,489.2z"/>
			<path d="M284.5,493.1c-0.7,0.7-1.5,1.1-2.4,1.1c-0.5,0-1-0.1-1.4-0.4c-0.4-0.2-0.8-0.6-1.1-1c-0.3-0.5-0.4-1-0.4-1.6
				c0-0.7,0.1-1.3,0.4-1.7c0.3-0.5,0.6-0.9,1.1-1.1c0.5-0.3,0.9-0.4,1.4-0.4c0.4,0,0.8,0.1,1.2,0.2c0.3,0.2,0.6,0.4,0.8,0.7
				c0.2,0.3,0.3,0.6,0.3,1c0,0.6-0.2,1-0.6,1.3s-0.9,0.5-1.5,0.5c-0.4,0-0.7,0-1.1-0.1c-0.3-0.1-0.7-0.2-1-0.4v0.1
				c0,0.4,0.1,0.7,0.2,1.1c0.2,0.3,0.4,0.5,0.7,0.7c0.3,0.2,0.6,0.2,0.9,0.2c0.8,0,1.4-0.3,2-0.8L284.5,493.1z M281.1,489.2
				c-0.3,0.3-0.6,0.6-0.7,1.1c0.6,0.2,1.1,0.3,1.7,0.3c0.4,0,0.7-0.1,0.9-0.2c0.2-0.2,0.4-0.4,0.4-0.7c0-0.3-0.1-0.5-0.3-0.7
				s-0.5-0.3-0.8-0.3C281.8,488.8,281.4,488.9,281.1,489.2z"/>
		</g>
	</g>
	<g>
		<g>
			<path d="M263.5,205.4c-1-0.2-1.9-0.6-2.6-1.2c-0.8-0.6-1.3-1.4-1.6-2.4c-0.3-1-0.3-2,0-2.9s0.8-1.8,1.6-2.5
				c0.7-0.7,1.6-1.2,2.6-1.5s2-0.4,3-0.2c1,0.2,1.8,0.5,2.5,1.2c0.7,0.6,1.2,1.5,1.5,2.5s0.3,1.9,0,2.9c-0.3,0.9-0.8,1.8-1.5,2.5
				s-1.6,1.2-2.6,1.5C265.5,205.5,264.5,205.5,263.5,205.4z M266.5,200.8c0.2-0.4,0.3-0.9,0.2-1.4c-0.1-0.5-0.4-0.9-0.8-1.1
				s-0.9-0.2-1.4-0.1c-0.5,0.2-0.9,0.4-1.1,0.9c-0.3,0.4-0.3,0.9-0.2,1.4c0.1,0.5,0.4,0.8,0.9,1c0.4,0.2,0.9,0.2,1.4,0.1
				C265.9,201.5,266.3,201.2,266.5,200.8z M265,215.3l13.6-25.9l3,1.6l-13.5,26L265,215.3z M280.4,211.7c-1-0.2-1.8-0.5-2.5-1.2
				c-0.7-0.6-1.2-1.5-1.5-2.5s-0.3-1.9,0-2.9s0.8-1.8,1.5-2.5s1.6-1.2,2.6-1.5s1.9-0.4,2.9-0.2c1,0.2,1.8,0.6,2.6,1.2
				s1.3,1.4,1.5,2.4c0.3,1,0.3,2,0,2.9s-0.8,1.8-1.5,2.5s-1.6,1.2-2.5,1.5C282.4,211.8,281.4,211.9,280.4,211.7z M283.5,207.2
				c0.3-0.4,0.3-0.9,0.2-1.4c-0.1-0.5-0.4-0.9-0.9-1.1s-0.9-0.3-1.4-0.1c-0.5,0.2-0.9,0.5-1.1,0.9s-0.3,0.9-0.2,1.4
				c0.1,0.5,0.4,0.9,0.8,1.1s0.9,0.2,1.4,0.1C282.9,207.9,283.2,207.6,283.5,207.2z"/>
		</g>
		<g>
			<path d="M250.3,194.7c1.9,0.9,3.4,2.4,4.6,4.3c1.2,1.9,1.8,4.4,1.8,7.3c0,2.5-0.5,4.8-1.6,6.9s-2.5,3.8-4.3,5.1
				c-1.8,1.3-3.8,1.9-6,1.9c-0.5,0-0.8,0-1-0.1c-2.7-0.2-5-0.8-6.9-1.7c-2-0.9-3.9-2.1-5.7-3.6l2.2-8.1c1.8,1.6,3.7,2.9,5.5,3.9
				c1.9,0.9,3.5,1.4,5,1.4c1.6,0,3-0.5,4.1-1.4s1.7-2.4,1.7-4.3c0-1.5-0.6-2.7-1.7-3.6c-1.1-0.9-2.7-1.4-4.7-1.4
				c-1.7,0-3.2,0.2-4.5,0.6s-3.1,1.1-5.4,2.1v-24.7h22.4v8.1h-15.7v6.5c1.5-0.4,3-0.6,4.4-0.6C246.5,193.2,248.5,193.7,250.3,194.7z
				"/>
		</g>
		<g>
			<path d="M242.4,292v3.1h-1.1v-2H237v3.2h2V295h1v3.7h-1v-1.3h-2v3h1.7v1.2h-4.5v-1.2h1.6v-7.3h-1.6V292H242.4z"/>
			<path d="M264.4,300.6c-0.8,0.8-1.7,1.2-2.7,1.2c-0.5,0-1.1-0.1-1.6-0.4s-0.9-0.6-1.2-1.1c-0.3-0.5-0.5-1.1-0.5-1.8
				c0-0.7,0.2-1.4,0.5-1.9c0.3-0.6,0.7-1,1.2-1.3s1-0.4,1.6-0.4c0.5,0,0.9,0.1,1.3,0.3c0.4,0.2,0.7,0.4,0.9,0.7
				c0.2,0.3,0.3,0.7,0.3,1.1c0,0.6-0.2,1.1-0.7,1.4s-1,0.5-1.7,0.5c-0.4,0-0.8,0-1.2-0.1s-0.7-0.2-1.1-0.4v0.1
				c0,0.4,0.1,0.8,0.3,1.2c0.2,0.3,0.4,0.6,0.7,0.8c0.3,0.2,0.7,0.3,1,0.3c0.8,0,1.6-0.3,2.2-0.9L264.4,300.6z M260.6,296.3
				c-0.4,0.3-0.7,0.7-0.8,1.2c0.6,0.3,1.2,0.4,1.9,0.4c0.4,0,0.7-0.1,1-0.3c0.3-0.2,0.4-0.4,0.4-0.7c0-0.3-0.1-0.5-0.3-0.7
				c-0.2-0.2-0.5-0.3-0.9-0.3C261.4,295.9,261,296,260.6,296.3z"/>
			<path d="M287.3,300.6c-0.8,0.8-1.7,1.2-2.7,1.2c-0.5,0-1.1-0.1-1.6-0.4s-0.9-0.6-1.2-1.1s-0.5-1.1-0.5-1.8c0-0.7,0.2-1.4,0.5-1.9
				c0.3-0.6,0.7-1,1.2-1.3s1-0.4,1.6-0.4c0.5,0,0.9,0.1,1.3,0.3c0.4,0.2,0.7,0.4,0.9,0.7c0.2,0.3,0.3,0.7,0.3,1.1
				c0,0.6-0.2,1.1-0.7,1.4s-1,0.5-1.7,0.5c-0.4,0-0.8,0-1.2-0.1c-0.4-0.1-0.7-0.2-1.1-0.4v0.1c0,0.4,0.1,0.8,0.3,1.2
				c0.2,0.3,0.4,0.6,0.7,0.8c0.3,0.2,0.7,0.3,1,0.3c0.8,0,1.6-0.3,2.2-0.9L287.3,300.6z M283.5,296.3c-0.4,0.3-0.7,0.7-0.8,1.2
				c0.6,0.3,1.2,0.4,1.9,0.4c0.4,0,0.7-0.1,1-0.3c0.3-0.2,0.4-0.4,0.4-0.7c0-0.3-0.1-0.5-0.3-0.7c-0.2-0.2-0.5-0.3-0.9-0.3
				C284.3,295.9,283.9,296,283.5,296.3z"/>
		</g>
	</g>
	<g>
		<g>
			<path d="M243.7,224.9v2.9h-1V226h-3.8v2.9h1.8v-1.2h0.9v3.4h-0.9v-1.2h-1.8v2.7h1.5v1.1h-4.1v-1.1h1.4V226h-1.4v-1.1H243.7
				L243.7,224.9z"/>
			<path d="M263.8,232.7c-0.7,0.7-1.5,1.1-2.5,1.1c-0.5,0-1-0.1-1.4-0.4c-0.4-0.2-0.8-0.6-1.1-1c-0.3-0.5-0.4-1-0.4-1.6
				c0-0.7,0.1-1.3,0.4-1.8s0.7-0.9,1.1-1.2c0.5-0.3,0.9-0.4,1.4-0.4c0.4,0,0.8,0.1,1.2,0.2c0.3,0.2,0.6,0.4,0.8,0.7
				c0.2,0.3,0.3,0.6,0.3,1c0,0.6-0.2,1-0.6,1.3s-0.9,0.5-1.5,0.5c-0.4,0-0.7,0-1.1-0.1c-0.3-0.1-0.7-0.2-1-0.4v0.1
				c0,0.4,0.1,0.8,0.3,1.1c0.2,0.3,0.4,0.5,0.7,0.7c0.3,0.2,0.6,0.2,0.9,0.2c0.8,0,1.4-0.3,2-0.8L263.8,232.7z M260.3,228.8
				c-0.3,0.3-0.6,0.6-0.7,1.1c0.6,0.2,1.1,0.3,1.7,0.3c0.4,0,0.7-0.1,0.9-0.2c0.2-0.2,0.4-0.4,0.4-0.7s-0.1-0.5-0.3-0.7
				c-0.2-0.2-0.5-0.3-0.8-0.3C261.1,228.5,260.7,228.6,260.3,228.8z"/>
			<path d="M284.6,232.7c-0.7,0.7-1.5,1.1-2.5,1.1c-0.5,0-1-0.1-1.4-0.4c-0.4-0.2-0.8-0.6-1.1-1c-0.3-0.5-0.4-1-0.4-1.6
				c0-0.7,0.1-1.3,0.4-1.8s0.7-0.9,1.1-1.2c0.5-0.3,0.9-0.4,1.4-0.4c0.4,0,0.8,0.1,1.2,0.2c0.3,0.2,0.6,0.4,0.8,0.7
				c0.2,0.3,0.3,0.6,0.3,1c0,0.6-0.2,1-0.6,1.3s-0.9,0.5-1.5,0.5c-0.4,0-0.7,0-1.1-0.1c-0.3-0.1-0.7-0.2-1-0.4v0.1
				c0,0.4,0.1,0.8,0.3,1.1c0.2,0.3,0.4,0.5,0.7,0.7c0.3,0.2,0.6,0.2,0.9,0.2c0.8,0,1.4-0.3,2-0.8L284.6,232.7z M281.2,228.8
				c-0.3,0.3-0.6,0.6-0.7,1.1c0.6,0.2,1.1,0.3,1.7,0.3c0.4,0,0.7-0.1,0.9-0.2c0.2-0.2,0.4-0.4,0.4-0.7s-0.1-0.5-0.3-0.7
				c-0.2-0.2-0.5-0.3-0.8-0.3C281.9,228.5,281.5,228.6,281.2,228.8z"/>
		</g>
	</g>
	<path d="M178,134.7H47.2c-2.8,0-5,2.2-5,5V171c0,2.8,2.2,5,5,5H178c2.8,0,5-2.2,5-5v-31.3C183,136.9,180.8,134.7,178,134.7z"/>
	<path d="M480.1,134.7H349.3c-2.8,0-5,2.2-5,5V171c0,2.8,2.2,5,5,5h130.8c2.8,0,5-2.2,5-5v-31.3
		C485.1,136.9,482.8,134.7,480.1,134.7z"/>
	<g>
		<path class="st2" d="M58.6,154.7v3.4h1.8v2.1H55v-2.1h1.8v-3.3l-3.4-6.2h-1.2v-2.1h4.6v2.1h-1.2l2.3,4.4l2.2-4.4h-1.4v-2.1h4.6
			v2.1H62L58.6,154.7z"/>
		<path class="st2" d="M66.2,159.6c-0.8-0.6-1.4-1.5-1.9-2.5c-0.5-1.1-0.7-2.3-0.7-3.6s0.2-2.5,0.7-3.6s1.1-1.9,1.9-2.5
			s1.7-0.9,2.7-0.9s1.9,0.3,2.7,0.9c0.8,0.6,1.4,1.5,1.9,2.5c0.5,1.1,0.7,2.3,0.7,3.6s-0.2,2.5-0.7,3.6s-1.1,1.9-1.9,2.5
			s-1.7,0.9-2.7,0.9C67.9,160.5,67,160.2,66.2,159.6z M70.5,157.7c0.5-0.4,0.9-1,1.1-1.8c0.3-0.8,0.4-1.6,0.4-2.5s-0.1-1.8-0.4-2.5
			c-0.3-0.8-0.6-1.3-1.1-1.8c-0.5-0.4-1.1-0.6-1.7-0.6c-0.7,0-1.2,0.2-1.7,0.7c-0.5,0.4-0.9,1-1.1,1.8c-0.3,0.7-0.4,1.6-0.4,2.5
			s0.1,1.8,0.4,2.5s0.6,1.3,1.1,1.8s1.1,0.6,1.7,0.6C69.5,158.3,70,158.1,70.5,157.7z"/>
		<path class="st2" d="M87.2,148.7h-1.7v6.2c0,1.1-0.2,2-0.6,2.9s-0.9,1.5-1.6,2s-1.5,0.7-2.3,0.7c-0.9,0-1.7-0.2-2.4-0.7
			c-0.7-0.5-1.2-1.1-1.6-2c-0.4-0.8-0.6-1.8-0.6-2.9v-6.2h-1.7v-2.1h5.2v2.1h-1.6v6.1c0,0.7,0.1,1.3,0.3,1.8c0.2,0.5,0.5,1,0.9,1.3
			s0.8,0.5,1.4,0.5c0.5,0,1-0.2,1.4-0.5s0.7-0.7,0.9-1.3c0.2-0.5,0.3-1.2,0.3-1.9v-6.1H82v-2.1h5.2V148.7z"/>
		<path class="st2" d="M99,159.1c-0.3,0.4-0.6,0.8-0.9,1c-0.3,0.3-0.7,0.4-1.2,0.4c-0.9,0-1.6-0.4-2.2-1.3c-0.6-0.9-1-2.2-1.4-4
			l-0.1-0.6h-1.8v3.6h1.7v2.1h-5.3v-2.1h1.7v-9.5h-1.7v-2.1h5.8c1.2,0,2.1,0.4,2.8,1.1c0.7,0.7,1,1.7,1,2.9c0,1-0.2,1.9-0.7,2.5
			c-0.4,0.7-1.1,1.1-1.9,1.3L95,155c0.3,1.1,0.6,1.9,0.9,2.3c0.3,0.5,0.7,0.7,1.1,0.7s0.8-0.2,1.1-0.7L99,159.1z M91.4,152.7h2.2
			c0.5,0,0.9-0.2,1.3-0.5c0.4-0.4,0.5-0.9,0.5-1.5s-0.2-1.1-0.5-1.4c-0.4-0.3-0.8-0.5-1.3-0.5h-2.2V152.7z"/>
		<path class="st2" d="M113.3,157.1c-0.5,1-1.1,1.8-1.9,2.4s-1.6,0.9-2.6,0.9s-1.8-0.3-2.6-0.9c-0.8-0.6-1.4-1.4-1.9-2.5
			s-0.7-2.3-0.7-3.6c0-1.4,0.2-2.6,0.7-3.7c0.4-1.1,1-1.9,1.8-2.5c0.7-0.6,1.5-0.9,2.4-0.9c1.2,0,2.2,0.6,3,1.7v-1.4h1.7v4.6
			l-1.2,0.2c-0.3-0.9-0.7-1.6-1.2-2.1s-1.2-0.8-1.9-0.8c-0.5,0-1.1,0.2-1.5,0.6c-0.5,0.4-0.9,1-1.2,1.7c-0.3,0.8-0.4,1.6-0.4,2.7
			c0,0.9,0.1,1.8,0.4,2.5s0.7,1.3,1.2,1.8c0.5,0.4,1,0.6,1.6,0.6c0.7,0,1.4-0.2,1.9-0.7c0.5-0.4,1-1.1,1.4-1.9L113.3,157.1z"/>
		<path class="st2" d="M124.9,148.7v9.5h1.7v2.1h-5.3v-2.1h1.7v-3.9h-5.1v3.9h1.7v2.1h-5.3v-2.1h1.7v-9.5h-1.7v-2.1h5.3v2.1h-1.7
			v3.6h5.1v-3.6h-1.7v-2.1h5.3v2.1H124.9z"/>
		<path class="st2" d="M139,158.1v2.1h-4.9v-2.1h1.5l-0.7-2.6H131l-0.7,2.6h1.6v2.1h-4.8v-2.1h1.3l2.9-9.5h-1.2v-2.1h5.7v2.1h-1.2
			l2.9,9.5H139z M134.4,153.7l-1.4-5l0,0l-1.4,5H134.4z"/>
		<path class="st2" d="M150.9,159.1c-0.3,0.4-0.6,0.8-0.9,1c-0.3,0.3-0.7,0.4-1.2,0.4c-0.9,0-1.6-0.4-2.2-1.3c-0.6-0.9-1-2.2-1.4-4
			l-0.1-0.6h-1.8v3.6h1.7v2.1h-5.3v-2.1h1.7v-9.5h-1.7v-2.1h5.8c1.2,0,2.1,0.4,2.8,1.1c0.7,0.7,1,1.7,1,2.9c0,1-0.2,1.9-0.7,2.5
			c-0.4,0.7-1.1,1.1-1.9,1.3l0.2,0.6c0.3,1.1,0.6,1.9,0.9,2.3c0.3,0.5,0.7,0.7,1.1,0.7c0.4,0,0.8-0.2,1.1-0.7L150.9,159.1z
			 M143.3,152.7h2.2c0.5,0,0.9-0.2,1.3-0.5c0.4-0.4,0.5-0.9,0.5-1.5s-0.2-1.1-0.5-1.4c-0.4-0.3-0.8-0.5-1.3-0.5h-2.2V152.7z"/>
		<path class="st2" d="M154.7,149c-0.5,0.4-0.9,1-1.2,1.7c-0.3,0.8-0.4,1.6-0.4,2.7c0,1,0.1,1.8,0.4,2.6c0.3,0.7,0.7,1.3,1.2,1.7
			s1.1,0.6,1.7,0.6c1.1,0,2-0.4,2.7-1.1V155h-2.9v-2h4.6v5.3c-0.5,0.6-1.1,1.1-1.9,1.5c-0.8,0.4-1.6,0.6-2.5,0.6
			c-1.1,0-2-0.3-2.8-0.9c-0.8-0.6-1.4-1.5-1.9-2.5c-0.4-1.1-0.7-2.3-0.7-3.6s0.2-2.5,0.7-3.6c0.4-1.1,1-1.9,1.8-2.6
			c0.7-0.6,1.6-0.9,2.4-0.9c0.7,0,1.3,0.1,1.8,0.4c0.6,0.3,1,0.7,1.4,1.3v-1.4h1.7v4.4l-1.2,0.1c-0.3-0.8-0.8-1.4-1.3-1.9
			s-1.2-0.8-2-0.8C155.8,148.4,155.3,148.6,154.7,149z"/>
		<path class="st2" d="M170.6,151.3v-2.6h-4.7v3.8h1.9v-1.7h1.4v5.3h-1.4v-1.7h-1.9v3.7h4.7v-2.6h1.7v4.7h-9.9v-2.1h1.7v-9.5h-1.7
			v-2.1h9.9v4.7h-1.7V151.3z"/>
	</g>
	<g>
		<g>
			<path class="st2" d="M385.7,155v3.4h1.8v2.1H382v-2.1h1.8v-3.3l-3.4-6.2h-1.2v-2.1h4.6v2.1h-1.2l2.3,4.4l2.2-4.4h-1.4v-2.1h4.6
				v2.1H389L385.7,155z"/>
			<path class="st2" d="M393.2,159.8c-0.8-0.6-1.4-1.5-1.9-2.5c-0.5-1.1-0.7-2.3-0.7-3.6s0.2-2.5,0.7-3.6s1.1-1.9,1.9-2.5
				s1.7-0.9,2.7-0.9s1.9,0.3,2.7,0.9c0.8,0.6,1.4,1.5,1.9,2.5c0.5,1.1,0.7,2.3,0.7,3.6s-0.2,2.5-0.7,3.6s-1.1,1.9-1.9,2.5
				s-1.7,0.9-2.7,0.9C394.9,160.8,394,160.4,393.2,159.8z M397.6,158c0.5-0.4,0.9-1,1.1-1.8c0.3-0.8,0.4-1.6,0.4-2.5
				s-0.1-1.8-0.4-2.5c-0.3-0.8-0.6-1.3-1.1-1.8c-0.5-0.4-1.1-0.6-1.7-0.6c-0.7,0-1.2,0.2-1.7,0.7c-0.5,0.4-0.9,1-1.1,1.8
				s-0.4,1.6-0.4,2.5s0.1,1.8,0.4,2.5s0.6,1.3,1.1,1.8c0.5,0.4,1.1,0.6,1.7,0.6C396.5,158.6,397.1,158.4,397.6,158z"/>
			<path class="st2" d="M414.2,149h-1.7v6.2c0,1.1-0.2,2-0.6,2.9s-0.9,1.5-1.6,2s-1.5,0.7-2.3,0.7c-0.9,0-1.7-0.2-2.4-0.7
				s-1.2-1.1-1.6-2c-0.4-0.8-0.6-1.8-0.6-2.9V149h-1.7v-2.1h5.2v2.1h-1.6v6.1c0,0.7,0.1,1.3,0.3,1.8c0.2,0.5,0.5,1,0.9,1.3
				s0.8,0.5,1.4,0.5c0.5,0,1-0.2,1.4-0.5s0.7-0.7,0.9-1.3c0.2-0.5,0.3-1.2,0.3-1.9v-6.1H409v-2.1h5.2V149z"/>
			<path class="st2" d="M426.8,147.4c0.6,0.4,1,0.9,1.4,1.5c0.3,0.7,0.5,1.4,0.5,2.3c0,0.9-0.2,1.7-0.5,2.3
				c-0.3,0.7-0.8,1.2-1.4,1.6c-0.6,0.4-1.3,0.6-2,0.6h-2.1v2.7h1.9v2.1h-5.5v-2.1h1.7V149h-1.7v-2.1h5.7
				C425.6,146.9,426.2,147.1,426.8,147.4z M426.2,153c0.4-0.4,0.6-1,0.6-1.9c0-0.8-0.2-1.3-0.6-1.7c-0.4-0.3-0.9-0.5-1.5-0.5h-2v4.6
				h2C425.3,153.6,425.8,153.4,426.2,153z"/>
			<path class="st2" d="M440.5,158.4v2.1h-4.9v-2.1h1.5l-0.7-2.6h-3.9l-0.7,2.6h1.6v2.1h-4.8v-2.1h1.3l2.9-9.5h-1.2v-2.1h5.7v2.1
				h-1.2l2.9,9.5H440.5z M435.9,154l-1.4-5h-0.1l-1.4,5H435.9z"/>
			<path class="st2" d="M446.1,155v3.4h1.8v2.1h-5.4v-2.1h1.8v-3.3l-3.4-6.2h-1.2v-2.1h4.6v2.1H443l2.3,4.4l2.2-4.4h-1.4v-2.1h4.6
				v2.1h-1.3L446.1,155z"/>
		</g>
	</g>
	<g>
		<path d="M9.1,475.8v1.4h9v0.8l-7.8,5.5h6.1v-1.4H18v4.4h-1.6V485H9.1v1.5H7.5v-3l7.1-4.9H9.1v1.5H7.5v-4.3L9.1,475.8L9.1,475.8z"
			/>
		<path d="M17.4,473c-0.5,0.7-1.1,1.2-1.9,1.6c-0.8,0.4-1.7,0.6-2.8,0.6s-2-0.2-2.8-0.6s-1.5-0.9-2-1.6s-0.7-1.4-0.7-2.3
			c0-0.8,0.2-1.6,0.7-2.2c0.5-0.7,1.1-1.2,2-1.6c0.8-0.4,1.8-0.6,2.8-0.6s1.9,0.2,2.8,0.6c0.8,0.4,1.5,0.9,2,1.6s0.7,1.4,0.7,2.2
			C18.1,471.5,17.9,472.3,17.4,473z M16,469.3c-0.3-0.4-0.8-0.7-1.4-1c-0.6-0.2-1.2-0.3-1.9-0.3s-1.4,0.1-1.9,0.3
			c-0.6,0.2-1,0.5-1.4,1c-0.3,0.4-0.5,0.9-0.5,1.4c0,0.6,0.2,1,0.5,1.5c0.3,0.4,0.8,0.7,1.4,1c0.6,0.2,1.2,0.3,1.9,0.3
			s1.4-0.1,1.9-0.3c0.6-0.2,1-0.5,1.4-1c0.3-0.4,0.5-0.9,0.5-1.5C16.5,470.1,16.3,469.7,16,469.3z"/>
		<path d="M7.5,453h3.7v1.4H9.1v2.1h7.3V455H18v4.5h-1.6V458H9.1v2.2h2.1v1.4H7.5V453z"/>
		<path d="M16.3,443.2h1.6v4.1h-1.6V446l-2,0.6v3.3l2,0.6v-1.4h1.6v4h-1.6V452L9,449.6v1H7.5v-4.9H9v1.1l7.3-2.5V443.2z M12.9,447.1
			L9,448.3v0.1l3.9,1.2V447.1z"/>
		<path d="M12.6,437.5l3.8-2.7v-1H18v4.2h-1.4v-1.2l-2.7,1.8l2.7,1.9v-1.2H18v3.9h-1.6V442l-3.5-2.6l-3.7,2.8v1H7.5V439h1.4v1.2
			l2.7-1.9l-2.7-1.9v1.2H7.5v-4h1.6v1.2L12.6,437.5z"/>
		<path d="M7.5,421.4h3.7v1.4H9.1v3.7h3.1V425h-1.3v-1.2H15v1.2h-1.3v1.5h2.8v-1.6h1.6v4.6h-1.6V428H9.1v1.5H7.5V421.4z"/>
		<path d="M11.1,413.6h-2v4H12V416h-1.3v-1.2h4.1v1.2h-1.3v1.6h2.9v-4h-2v-1.4H18v8.4h-1.6v-1.4H9.1v1.4H7.5v-8.4h3.6V413.6z"/>
		<path d="M11.1,403.9h-2v4H12v-1.6h-1.3v-1.2h4.1v1.2h-1.3v1.6h2.9v-4h-2v-1.4H18v8.4h-1.6v-1.4H9.1v1.4H7.5v-8.4h3.6V403.9z"/>
		<path d="M5.2,395.1h15.7v1.5H5.2V395.1z"/>
		<path d="M9.1,378.9v1.4h9v0.8l-7.8,5.5h6.1v-1.4H18v4.4h-1.6v-1.5H9.1v1.5H7.5v-3l7.1-4.9H9.1v1.5H7.5v-4.3H9.1z"/>
		<path d="M17.4,376c-0.5,0.7-1.1,1.2-1.9,1.6c-0.8,0.4-1.7,0.6-2.8,0.6s-2-0.2-2.8-0.6s-1.5-0.9-2-1.6s-0.7-1.4-0.7-2.3
			c0-0.8,0.2-1.6,0.7-2.2c0.5-0.7,1.1-1.2,2-1.6c0.8-0.4,1.8-0.6,2.8-0.6s1.9,0.2,2.8,0.6c0.8,0.4,1.5,0.9,2,1.6s0.7,1.4,0.7,2.2
			C18.1,374.6,17.9,375.3,17.4,376z M16,372.3c-0.3-0.4-0.8-0.7-1.4-1c-0.6-0.2-1.2-0.3-1.9-0.3s-1.4,0.1-1.9,0.3
			c-0.6,0.2-1,0.5-1.4,1c-0.3,0.4-0.5,0.9-0.5,1.4c0,0.6,0.2,1,0.5,1.5c0.3,0.4,0.8,0.7,1.4,1c0.6,0.2,1.2,0.3,1.9,0.3
			s1.4-0.1,1.9-0.3c0.6-0.2,1-0.5,1.4-1c0.3-0.4,0.5-0.9,0.5-1.5C16.5,373.2,16.3,372.7,16,372.3z"/>
		<path d="M15,356.5c0.9,0,1.6,0.3,2.2,0.8c0.5,0.6,0.8,1.4,0.8,2.4v5h-1.6v-1.5H9.1v1.5H7.5V360c0-0.9,0.3-1.6,0.8-2.1
			s1.2-0.7,2-0.7c0.5,0,1,0.1,1.3,0.3c0.4,0.2,0.7,0.5,0.9,0.8C12.9,357.1,13.7,356.5,15,356.5z M9.1,361.7H12v-1.4
			c0-1.1-0.5-1.6-1.5-1.6c-0.5,0-0.9,0.1-1.1,0.4c-0.2,0.3-0.3,0.6-0.3,0.9C9.1,360,9.1,361.7,9.1,361.7z M14.9,358.1
			c-0.5,0-0.9,0.1-1.1,0.4c-0.2,0.3-0.3,0.7-0.4,1.3v1.9h2.9v-1.8C16.3,358.7,15.8,358.1,14.9,358.1z"/>
		<path d="M16.3,345.9h1.6v4.1h-1.6v-1.3l-2,0.6v3.3l2,0.6v-1.4h1.6v4h-1.6v-1.1L9,352.4v1H7.5v-4.9H9v1.1l7.3-2.5V345.9z
			 M12.9,349.8L9,351v0.1l3.9,1.2V349.8z"/>
		<path d="M9.1,334.7v1.4h9v0.8l-7.8,5.5h6.1V341H18v4.4h-1.6V344H9.1v1.5H7.5v-3l7.1-4.9H9.1v1.5H7.5v-4.3h1.6V334.7z"/>
		<path d="M16.3,324.1h1.6v4.1h-1.6v-1.1l-3.1,2.2l1.7,1.7h1.4v-1.4h1.6v4.4h-1.6v-1.5H9.1v1.5H7.5v-4.4h1.6v1.4h4l-4-3.9v1.3H7.5
			v-4h1.6v1l3,2.9l4.3-3.1v-1.1H16.3z"/>
		<path d="M7.5,311.8h3.7v1.4H9.1v3.7h3.1v-1.5h-1.3v-1.2H15v1.2h-1.3v1.5h2.8v-1.6h1.6v4.6h-1.6v-1.5H9.1v1.5H7.5V311.8z"/>
		<path d="M11.1,304h-2v4H12v-1.6h-1.3v-1.2h4.1v1.2h-1.3v1.6h2.9v-4h-2v-1.4H18v8.4h-1.6v-1.4H9.1v1.4H7.5v-8.4h3.6V304z"/>
		<path d="M11.1,294.3h-2v4H12v-1.6h-1.3v-1.2h4.1v1.2h-1.3v1.6h2.9v-4h-2v-1.4H18v8.4h-1.6v-1.4H9.1v1.4H7.5v-8.4h3.6V294.3z"/>
	</g>
	<polyline class="st3" points="12.3,273.3 12.3,153.1 42,153.1 	"/>
	<line class="st4" x1="344.1" y1="153.3" x2="182.8" y2="153.3"/>
	<g>
		<path d="M82.6,73.4v3.3H81V75h-3.1v2.1h1v-1h1.4v3.4h-1.4v-1h-1v1.9h1.4V82h-4.7v-1.6h1.3V75h-1.3v-1.6H82.6z"/>
		<path d="M96.3,81.6c-0.7-0.4-1.2-0.9-1.6-1.6s-0.6-1.4-0.6-2.2c0-0.8,0.2-1.6,0.6-2.2c0.4-0.7,0.9-1.2,1.6-1.6s1.4-0.6,2.3-0.6
			c0.8,0,1.6,0.2,2.3,0.6c0.7,0.4,1.2,0.9,1.6,1.6s0.6,1.4,0.6,2.2c0,0.8-0.2,1.6-0.6,2.2s-0.9,1.2-1.6,1.6s-1.4,0.6-2.3,0.6
			C97.7,82.2,97,82,96.3,81.6z M99.9,80.1c0.4-0.3,0.6-0.6,0.8-1s0.3-0.9,0.3-1.4s-0.1-1-0.3-1.4s-0.5-0.8-0.8-1s-0.8-0.4-1.3-0.4
			s-0.9,0.1-1.3,0.4s-0.7,0.6-0.8,1c-0.2,0.4-0.3,0.9-0.3,1.4s0.1,1,0.3,1.4s0.5,0.8,0.8,1c0.4,0.3,0.8,0.4,1.3,0.4
			S99.5,80.4,99.9,80.1z"/>
		<path d="M123.9,81.3c-0.2,0.3-0.5,0.5-0.8,0.6c-0.3,0.2-0.6,0.3-1.1,0.3c-0.8,0-1.4-0.3-1.9-0.8c-0.5-0.6-0.9-1.4-1.1-2.6v-0.2
			h-1.3v1.8h1.3V82h-4.5v-1.6h1.3V75h-1.3v-1.6h4.9c1,0,1.8,0.2,2.4,0.7c0.6,0.4,0.9,1.1,0.9,1.9c0,0.6-0.2,1.2-0.5,1.6
			s-0.8,0.7-1.4,0.9l0.1,0.2c0.2,0.6,0.4,1.1,0.6,1.3s0.5,0.4,0.8,0.4c0.2,0,0.3,0,0.5-0.1c0.1-0.1,0.2-0.2,0.4-0.3L123.9,81.3z
			 M117.8,77.1h1.7c0.3,0,0.6-0.1,0.9-0.3c0.3-0.2,0.4-0.5,0.4-0.8s-0.1-0.6-0.4-0.7s-0.6-0.2-0.9-0.2h-1.7V77.1z"/>
		<path d="M160.2,75v5.4h1.3V82H157v-1.6h1.2v-1.9c0-0.6,0.1-1.4,0.3-2.5l-2.8,6h-1.1l-2.8-5.8c0.1,1,0.2,1.8,0.2,2.4v1.9h1.2V82
			H149v-1.6h1.3V75H149v-1.6h3.4l2.8,5.9l2.8-5.9h3.5V75H160.2z"/>
		<path d="M182.4,80.4V82h-4.2v-1.6h1.2l-0.5-1.2h-3l-0.4,1.2h1.3V82h-4.1v-1.6h1l2.2-5.4h-0.8v-1.6h4.9V75h-0.8l2.2,5.4H182.4z
			 M178.4,77.8l-1-2.8l0,0l-1,2.8H178.4z"/>
		<path d="M204.2,75h-1.3v7.1h-1l-5.1-6v4.3h1.3V82h-4.5v-1.6h1.3V75h-1.3v-1.6h3.1l4.4,5.3V75h-1.3v-1.6h4.4L204.2,75L204.2,75z"/>
		<path d="M224.7,80.4V82h-4.2v-1.6h1.2l-0.5-1.2h-3l-0.4,1.2h1.3V82H215v-1.6h1l2.2-5.4h-0.8v-1.6h4.9V75h-0.8l2.2,5.4H224.7z
			 M220.8,77.8l-1-2.8l0,0l-1,2.8H220.8z"/>
		<path d="M239,75.2c-0.4,0.2-0.7,0.6-0.9,1s-0.3,0.9-0.3,1.5c0,0.5,0.1,1,0.3,1.5s0.5,0.8,0.9,1s0.8,0.4,1.3,0.4s0.8,0,1.2-0.1
			s0.6-0.2,0.9-0.4V79h-2.2v-1.5h3.9V81c-0.4,0.4-1,0.7-1.6,1c-0.7,0.3-1.4,0.4-2.1,0.4c-0.9,0-1.8-0.2-2.4-0.6
			c-0.7-0.4-1.2-0.9-1.6-1.6c-0.4-0.7-0.6-1.4-0.6-2.3c0-0.8,0.2-1.6,0.5-2.2c0.4-0.7,0.9-1.2,1.5-1.6s1.3-0.6,2.1-0.6
			c0.5,0,1,0.1,1.4,0.2c0.4,0.2,0.8,0.4,1.2,0.7v-0.8h1.7v2.8l-1.3,0.1c-0.2-0.4-0.6-0.8-1-1.1c-0.4-0.3-0.9-0.4-1.5-0.4
			C239.8,74.8,239.3,75,239,75.2z"/>
		<path d="M262.6,76.6V75H259v2.1h1.2v-1h1.4v3.4h-1.4v-1H259v1.9h3.5v-1.6h1.7V82h-8.4v-1.6h1.3V75h-1.3v-1.6h8.4v3.2H262.6z"/>
		<path d="M287.3,75v5.4h1.3V82h-4.5v-1.6h1.2v-1.9c0-0.6,0.1-1.4,0.3-2.5l-2.8,6h-1.1l-2.8-5.8c0.1,1,0.2,1.8,0.2,2.4v1.9h1.2V82
			h-4.4v-1.6h1.3V75h-1.3v-1.6h3.4l2.8,5.9l2.8-5.9h3.5V75H287.3z"/>
		<path d="M306.8,76.6V75h-3.5v2.1h1.2v-1h1.4v3.4h-1.4v-1h-1.2v1.9h3.5v-1.6h1.7V82h-8.4v-1.6h1.3V75h-1.3v-1.6h8.4v3.2H306.8z"/>
		<path d="M331,75h-1.3v7.1h-1l-5.1-6v4.3h1.3V82h-4.5v-1.6h1.3V75h-1.3v-1.6h3.1l4.4,5.3V75h-1.3v-1.6h4.4V75z"/>
		<path d="M350.9,73.4v3.3h-1.7V75h-1.7v5.4h1.3V82h-4.5v-1.6h1.3V75h-1.7v1.7h-1.7v-3.3C342.2,73.4,350.9,73.4,350.9,73.4z"/>
		<path d="M384.7,73.4v3.3H383V75h-3.1v2.1h1v-1h1.4v3.4h-1.4v-1h-1v1.9h1.4V82h-4.7v-1.6h1.3V75h-1.3v-1.6H384.7z"/>
		<path d="M402.9,76.6V75h-3.5v2.1h1.3v-1h1.4v3.4h-1.4v-1h-1.3v1.9h3.5v-1.6h1.7V82h-8.4v-1.6h1.3V75h-1.3v-1.6h8.4v3.2H402.9z"/>
		<path d="M423.2,76.6V75h-3.5v2.1h1.3v-1h1.4v3.4H421v-1h-1.3v1.9h3.5v-1.6h1.7V82h-8.4v-1.6h1.3V75h-1.3v-1.6h8.4v3.2H423.2z"/>
	</g>
	<g>
		<g>
			<path d="M352.6,221.5c0,0.9-0.2,1.7-0.7,2.4c-0.4,0.7-1.1,1.3-1.8,1.7c-0.8,0.4-1.7,0.6-2.6,0.6c-1.2,0-2.2-0.2-3.1-0.7
				s-1.7-1.1-2.5-1.9l0.8-2c0.7,0.7,1.4,1.3,2.2,1.7c0.8,0.4,1.7,0.6,2.6,0.6s1.6-0.2,2.2-0.7s0.9-1.1,0.9-1.9
				c0-0.9-0.4-1.6-1.1-2.1s-1.8-0.7-3.4-0.7h-1.7v-2.1h1.7c1.3,0,2.3-0.3,2.9-0.8c0.7-0.6,1-1.3,1-2.2c0-0.8-0.3-1.5-0.8-2
				s-1.2-0.8-1.9-0.8c-0.8,0-1.5,0.2-2.2,0.6c-0.7,0.4-1.4,1-2,1.8l-1-1.9c0.7-0.9,1.5-1.6,2.4-2.1s1.9-0.8,2.9-0.8
				c0.8,0,1.6,0.2,2.3,0.6c0.7,0.4,1.3,0.9,1.7,1.7c0.4,0.7,0.6,1.6,0.6,2.6s-0.3,1.8-0.8,2.6c-0.5,0.7-1.2,1.3-2.1,1.7
				C351.5,217.9,352.6,219.3,352.6,221.5z"/>
			<path d="M369.1,223.7v2.3h-7v-2.3h2.9v-11.6c-0.3,0.6-0.7,1-1.3,1.4s-1.1,0.7-1.7,0.8l-0.4-2.2c0.8-0.2,1.5-0.6,2.1-1.3
				s1.1-1.5,1.3-2.4h2v15.2h2.1V223.7z"/>
			<path d="M386,215.9c0.8,0.4,1.4,1,1.9,1.9s0.7,1.9,0.7,3s-0.2,2-0.7,2.9s-1.1,1.6-1.8,2.1c-0.8,0.5-1.6,0.8-2.5,0.8
				c-1.1,0-2.2-0.2-3-0.7s-1.7-1-2.6-1.8l0.7-2.3c1.8,1.6,3.3,2.4,4.7,2.4c0.9,0,1.6-0.3,2.3-0.9s1-1.5,1-2.6c0-1-0.3-1.8-1-2.3
				s-1.5-0.8-2.6-0.8c-0.7,0-1.4,0.1-2,0.3s-1.4,0.5-2.2,1V218l0,0v-9.5h9.4v2.4h-7.5v4.9c1-0.4,2-0.5,2.9-0.5
				C384.4,215.3,385.2,215.5,386,215.9z"/>
			<path d="M400.5,225.3c-0.9-0.7-1.7-1.8-2.3-3.1c-0.6-1.4-0.9-3-0.9-4.8s0.3-3.5,0.9-4.9s1.3-2.4,2.2-3.2c0.9-0.7,1.9-1.1,3-1.1
				s2,0.4,3,1.1c0.9,0.7,1.7,1.8,2.3,3.2c0.6,1.4,0.9,3,0.9,4.8s-0.3,3.5-0.9,4.8c-0.6,1.4-1.3,2.4-2.2,3.1c-0.9,0.7-1.9,1.1-3,1.1
				C402.5,226.4,401.5,226,400.5,225.3z M405.6,223.3c0.6-0.6,1.1-1.4,1.4-2.4s0.5-2.2,0.5-3.6c0-1.3-0.2-2.5-0.5-3.6
				c-0.4-1-0.8-1.8-1.4-2.4c-0.6-0.6-1.3-0.9-2.1-0.9c-0.8,0-1.5,0.3-2.1,0.9c-0.6,0.6-1.1,1.4-1.4,2.4s-0.5,2.2-0.5,3.6
				c0,1.3,0.2,2.5,0.5,3.6s0.8,1.9,1.4,2.4c0.6,0.6,1.3,0.9,2,0.9C404.3,224.1,405,223.9,405.6,223.3z"/>
			<path d="M448.5,209.1h-2.6v9.5c0,1.5-0.3,2.8-0.8,4s-1.3,2.1-2.2,2.8c-0.9,0.7-2,1-3.2,1s-2.3-0.3-3.3-1
				c-0.9-0.7-1.7-1.6-2.2-2.8s-0.8-2.5-0.8-4v-9.5h-2.6v-2.3h7.2v2.3h-2.5v9.4c0,1,0.2,2,0.5,2.8c0.4,0.8,0.8,1.5,1.5,2
				s1.3,0.7,2.2,0.7c0.8,0,1.5-0.2,2.1-0.7s1.1-1.1,1.5-2c0.4-0.8,0.5-1.8,0.5-2.8v-9.4h-2.5v-2.3h7.2L448.5,209.1L448.5,209.1z"/>
			<path d="M467.4,217.5c0.9,0.9,1.4,2.2,1.4,3.7c0,1-0.2,1.9-0.6,2.7s-0.9,1.4-1.7,1.8s-1.5,0.6-2.4,0.6c-1,0-1.9-0.3-2.7-0.8
				s-1.7-1.3-2.4-2.4v2.8h-1.8v-6.5l1.2-0.1c0.7,1.4,1.6,2.6,2.6,3.4c1,0.8,2,1.2,3.1,1.2c0.8,0,1.4-0.2,1.9-0.7s0.7-1.1,0.7-1.8
				c0-0.8-0.3-1.6-1-2.2c-0.7-0.6-1.8-1.2-3.4-1.8c-1.7-0.6-2.9-1.4-3.7-2.4c-0.8-1-1.2-2.2-1.2-3.7c0-1,0.2-1.9,0.6-2.7
				s0.9-1.4,1.6-1.8c0.7-0.4,1.4-0.6,2.2-0.6c1.9,0,3.4,1,4.6,2.9v-2.5h1.8v6.4l-1.1,0.1c-0.6-1.5-1.3-2.6-2.1-3.4
				c-0.8-0.8-1.7-1.2-2.7-1.2c-0.8,0-1.4,0.2-2,0.7c-0.5,0.5-0.8,1.1-0.8,1.9c0,0.8,0.3,1.5,0.9,2.1s1.6,1.1,3,1.7
				C465.2,215.8,466.5,216.6,467.4,217.5z"/>
			<path d="M488.5,207.8c1.2,0.7,2.2,1.8,2.9,3.3c0.7,1.5,1.1,3.2,1.1,5.3s-0.4,3.8-1.1,5.3s-1.7,2.5-2.9,3.3
				c-1.2,0.7-2.5,1.1-4,1.1h-6.8v-2.3h2.6v-14.6h-2.6v-2.3h6.8C486,206.7,487.3,207.1,488.5,207.8z M488.6,221.9
				c1.1-1.2,1.7-3,1.7-5.5s-0.6-4.4-1.7-5.5s-2.6-1.8-4.3-1.8h-1.9v14.6h1.9C486,223.7,487.5,223.1,488.6,221.9z"/>
		</g>
	</g>
	<g>
		<g>
			<path d="M349.4,277.8c0.8,0.4,1.4,1,1.9,1.9c0.5,0.8,0.7,1.9,0.7,3s-0.2,2-0.7,2.9s-1.1,1.6-1.8,2.1c-0.8,0.5-1.6,0.8-2.5,0.8
				c-1.1,0-2.2-0.2-3-0.7c-0.9-0.5-1.7-1-2.6-1.8l0.7-2.3c1.8,1.6,3.3,2.4,4.7,2.4c0.9,0,1.6-0.3,2.3-0.9c0.6-0.6,1-1.5,1-2.6
				c0-1-0.3-1.8-1-2.3c-0.6-0.5-1.5-0.8-2.6-0.8c-0.7,0-1.4,0.1-2,0.3c-0.7,0.2-1.4,0.5-2.2,1V280l0,0v-9.5h9.4v2.4H344v4.9
				c1-0.4,2-0.5,2.9-0.5C347.8,277.2,348.7,277.4,349.4,277.8z"/>
			<path d="M368.4,285.6v2.3h-7v-2.3h2.9V274c-0.3,0.6-0.7,1-1.3,1.4c-0.5,0.4-1.1,0.7-1.7,0.8l-0.4-2.2c0.8-0.2,1.5-0.6,2.1-1.3
				c0.6-0.7,1.1-1.5,1.3-2.4h2v15.2h2.1V285.6z"/>
			<path d="M380.3,287.2c-0.9-0.7-1.7-1.8-2.3-3.1c-0.6-1.4-0.9-3-0.9-4.8s0.3-3.5,0.9-4.9s1.3-2.4,2.2-3.2c0.9-0.7,1.9-1.1,3-1.1
				s2,0.4,3,1.1c0.9,0.7,1.7,1.8,2.3,3.2s0.9,3,0.9,4.8s-0.3,3.5-0.9,4.8c-0.6,1.4-1.3,2.4-2.2,3.1c-0.9,0.7-1.9,1.1-3,1.1
				C382.2,288.3,381.2,288,380.3,287.2z M385.3,285.2c0.6-0.6,1.1-1.4,1.4-2.4s0.5-2.2,0.5-3.6c0-1.3-0.2-2.5-0.5-3.6
				c-0.4-1-0.8-1.8-1.4-2.4s-1.3-0.9-2.1-0.9c-0.8,0-1.5,0.3-2.1,0.9s-1.1,1.4-1.4,2.4s-0.5,2.2-0.5,3.6c0,1.3,0.2,2.5,0.5,3.6
				c0.3,1,0.8,1.8,1.4,2.4s1.3,0.9,2,0.9C384,286.1,384.7,285.8,385.3,285.2z"/>
			<path d="M401.4,287.2c-0.9-0.7-1.7-1.8-2.3-3.1c-0.6-1.4-0.9-3-0.9-4.8s0.3-3.5,0.9-4.9s1.3-2.4,2.2-3.2c0.9-0.7,1.9-1.1,3-1.1
				s2,0.4,3,1.1c0.9,0.7,1.7,1.8,2.3,3.2s0.9,3,0.9,4.8s-0.3,3.5-0.9,4.8c-0.6,1.4-1.3,2.4-2.2,3.1c-0.9,0.7-1.9,1.1-3,1.1
				C403.3,288.3,402.3,288,401.4,287.2z M406.4,285.2c0.6-0.6,1.1-1.4,1.4-2.4s0.5-2.2,0.5-3.6c0-1.3-0.2-2.5-0.5-3.6
				c-0.4-1-0.8-1.8-1.4-2.4s-1.3-0.9-2.1-0.9c-0.8,0-1.5,0.3-2.1,0.9s-1.1,1.4-1.4,2.4s-0.5,2.2-0.5,3.6c0,1.3,0.2,2.5,0.5,3.6
				c0.3,1,0.8,1.8,1.4,2.4s1.3,0.9,2,0.9C405.1,286.1,405.8,285.8,406.4,285.2z"/>
			<path d="M449.4,271h-2.6v9.5c0,1.5-0.3,2.8-0.8,4s-1.3,2.1-2.2,2.8c-0.9,0.7-2,1-3.2,1s-2.3-0.3-3.3-1c-0.9-0.7-1.7-1.6-2.2-2.8
				c-0.5-1.2-0.8-2.5-0.8-4V271h-2.6v-2.3h7.2v2.3h-2.5v9.4c0,1,0.2,2,0.5,2.8c0.4,0.8,0.8,1.5,1.5,2c0.6,0.5,1.3,0.7,2.2,0.7
				c0.8,0,1.5-0.2,2.1-0.7s1.1-1.1,1.5-2c0.4-0.8,0.5-1.8,0.5-2.8V271h-2.5v-2.3h7.2L449.4,271L449.4,271z"/>
			<path d="M467.9,279.5c0.9,0.9,1.4,2.2,1.4,3.7c0,1-0.2,1.9-0.6,2.7c-0.4,0.8-0.9,1.4-1.7,1.8c-0.7,0.4-1.5,0.6-2.4,0.6
				c-1,0-1.9-0.3-2.7-0.8c-0.9-0.6-1.7-1.3-2.4-2.4v2.8h-1.8v-6.5l1.2-0.1c0.7,1.4,1.6,2.6,2.6,3.4s2,1.2,3.1,1.2
				c0.8,0,1.4-0.2,1.9-0.7c0.5-0.4,0.7-1.1,0.7-1.8c0-0.8-0.3-1.6-1-2.2s-1.8-1.2-3.4-1.8c-1.7-0.6-2.9-1.4-3.7-2.4
				c-0.8-1-1.2-2.2-1.2-3.7c0-1,0.2-1.9,0.6-2.7c0.4-0.8,0.9-1.4,1.6-1.8s1.4-0.6,2.2-0.6c1.9,0,3.4,1,4.6,2.9v-2.5h1.8v6.4
				l-1.1,0.1c-0.6-1.5-1.3-2.6-2.1-3.4c-0.8-0.8-1.7-1.2-2.7-1.2c-0.8,0-1.4,0.2-2,0.7c-0.5,0.5-0.8,1.1-0.8,1.9s0.3,1.5,0.9,2.1
				s1.6,1.1,3,1.7C465.7,277.8,467,278.6,467.9,279.5z"/>
			<path d="M489,269.8c1.2,0.7,2.2,1.8,2.9,3.3c0.7,1.5,1.1,3.2,1.1,5.3c0,2.1-0.4,3.8-1.1,5.3s-1.7,2.5-2.9,3.3
				c-1.2,0.7-2.5,1.1-4,1.1h-6.8v-2.3h2.6V271h-2.6v-2.3h6.8C486.5,268.7,487.8,269,489,269.8z M489.1,283.8c1.1-1.2,1.7-3,1.7-5.5
				s-0.6-4.4-1.7-5.5c-1.1-1.2-2.6-1.8-4.3-1.8h-1.9v14.6h1.9C486.5,285.6,488,285,489.1,283.8z"/>
		</g>
	</g>
	<g>
		<g>
			<path d="M340.3,347.6v2.3h-7v-2.3h2.9V336c-0.3,0.6-0.7,1-1.3,1.4c-0.5,0.4-1.1,0.7-1.7,0.8l-0.4-2.2c0.8-0.2,1.5-0.6,2.1-1.3
				c0.6-0.7,1.1-1.5,1.3-2.4h2v15.2h2.1V347.6z"/>
			<path d="M350.1,349.2c-0.9-0.7-1.7-1.8-2.3-3.1c-0.6-1.4-0.9-3-0.9-4.8s0.3-3.5,0.9-4.9s1.3-2.4,2.2-3.2c0.9-0.7,1.9-1.1,3-1.1
				s2,0.4,3,1.1c0.9,0.7,1.7,1.8,2.3,3.2s0.9,3,0.9,4.8s-0.3,3.5-0.9,4.8c-0.6,1.4-1.3,2.4-2.2,3.1c-0.9,0.7-1.9,1.1-3,1.1
				C352,350.3,351,349.9,350.1,349.2z M355.1,347.2c0.6-0.6,1.1-1.4,1.4-2.4s0.5-2.2,0.5-3.6c0-1.3-0.2-2.5-0.5-3.6
				c-0.4-1-0.8-1.8-1.4-2.4s-1.3-0.9-2.1-0.9c-0.8,0-1.5,0.3-2.1,0.9s-1.1,1.4-1.4,2.4s-0.5,2.2-0.5,3.6c0,1.3,0.2,2.5,0.5,3.6
				c0.3,1,0.8,1.8,1.4,2.4s1.3,0.9,2,0.9C353.8,348.1,354.5,347.8,355.1,347.2z"/>
			<path d="M382.5,347.6v2.3h-7v-2.3h2.9V336c-0.3,0.6-0.7,1-1.3,1.4c-0.5,0.4-1.1,0.7-1.7,0.8L375,336c0.8-0.2,1.5-0.6,2.1-1.3
				c0.6-0.7,1.1-1.5,1.3-2.4h2v15.2L382.5,347.6L382.5,347.6z"/>
			<path d="M392.3,349.2c-0.9-0.7-1.7-1.8-2.3-3.1c-0.6-1.4-0.9-3-0.9-4.8s0.3-3.5,0.9-4.9s1.3-2.4,2.2-3.2c0.9-0.7,1.9-1.1,3-1.1
				s2,0.4,3,1.1c0.9,0.7,1.7,1.8,2.3,3.2s0.9,3,0.9,4.8s-0.3,3.5-0.9,4.8c-0.6,1.4-1.3,2.4-2.2,3.1c-0.9,0.7-1.9,1.1-3,1.1
				C394.2,350.3,393.2,349.9,392.3,349.2z M397.3,347.2c0.6-0.6,1.1-1.4,1.4-2.4s0.5-2.2,0.5-3.6c0-1.3-0.2-2.5-0.5-3.6
				c-0.4-1-0.8-1.8-1.4-2.4s-1.3-0.9-2.1-0.9c-0.8,0-1.5,0.3-2.1,0.9s-1.1,1.4-1.4,2.4s-0.5,2.2-0.5,3.6c0,1.3,0.2,2.5,0.5,3.6
				c0.3,1,0.8,1.8,1.4,2.4s1.3,0.9,2,0.9C396,348.1,396.7,347.8,397.3,347.2z"/>
			<path d="M411.3,349.2c-0.9-0.7-1.7-1.8-2.3-3.1c-0.6-1.4-0.9-3-0.9-4.8s0.3-3.5,0.9-4.9s1.3-2.4,2.2-3.2c0.9-0.7,1.9-1.1,3-1.1
				s2,0.4,3,1.1c0.9,0.7,1.7,1.8,2.3,3.2s0.9,3,0.9,4.8s-0.3,3.5-0.9,4.8c-0.6,1.4-1.3,2.4-2.2,3.1c-0.9,0.7-1.9,1.1-3,1.1
				C413.2,350.3,412.3,349.9,411.3,349.2z M416.4,347.2c0.6-0.6,1.1-1.4,1.4-2.4s0.5-2.2,0.5-3.6c0-1.3-0.2-2.5-0.5-3.6
				c-0.4-1-0.8-1.8-1.4-2.4s-1.3-0.9-2.1-0.9c-0.8,0-1.5,0.3-2.1,0.9s-1.1,1.4-1.4,2.4s-0.5,2.2-0.5,3.6c0,1.3,0.2,2.5,0.5,3.6
				c0.3,1,0.8,1.8,1.4,2.4s1.3,0.9,2,0.9C415.1,348.1,415.7,347.8,416.4,347.2z"/>
			<path d="M455.2,333h-2.6v9.5c0,1.5-0.3,2.8-0.8,4s-1.3,2.1-2.2,2.8c-0.9,0.7-2,1-3.2,1s-2.3-0.3-3.3-1c-0.9-0.7-1.7-1.6-2.2-2.8
				c-0.5-1.2-0.8-2.5-0.8-4V333h-2.6v-2.3h7.2v2.3h-2.5v9.4c0,1,0.2,2,0.5,2.8c0.4,0.8,0.8,1.5,1.5,2c0.6,0.5,1.3,0.7,2.2,0.7
				c0.8,0,1.5-0.2,2.1-0.7s1.1-1.1,1.5-2c0.4-0.8,0.5-1.8,0.5-2.8V333H448v-2.3h7.2V333z"/>
			<path d="M471.7,341.5c0.9,0.9,1.4,2.2,1.4,3.7c0,1-0.2,1.9-0.6,2.7c-0.4,0.8-0.9,1.4-1.7,1.8c-0.7,0.4-1.5,0.6-2.4,0.6
				c-1,0-1.9-0.3-2.7-0.8c-0.9-0.6-1.7-1.3-2.4-2.4v2.8h-1.8v-6.5l1.2-0.1c0.7,1.4,1.6,2.6,2.6,3.4s2,1.2,3.1,1.2
				c0.8,0,1.4-0.2,1.9-0.7c0.5-0.4,0.7-1.1,0.7-1.8c0-0.8-0.3-1.6-1-2.2s-1.8-1.2-3.4-1.8c-1.7-0.6-2.9-1.4-3.7-2.4
				c-0.8-1-1.2-2.2-1.2-3.7c0-1,0.2-1.9,0.6-2.7c0.4-0.8,0.9-1.4,1.6-1.8s1.4-0.6,2.2-0.6c1.9,0,3.4,1,4.6,2.9v-2.5h1.8v6.4
				l-1.1,0.1c-0.6-1.5-1.3-2.6-2.1-3.4c-0.8-0.8-1.7-1.2-2.7-1.2c-0.8,0-1.4,0.2-2,0.7c-0.5,0.5-0.8,1.1-0.8,1.9s0.3,1.5,0.9,2.1
				s1.6,1.1,3,1.7C469.4,339.7,470.8,340.5,471.7,341.5z"/>
			<path d="M490.7,331.7c1.2,0.7,2.2,1.8,2.9,3.3c0.7,1.5,1.1,3.2,1.1,5.3c0,2.1-0.4,3.8-1.1,5.3s-1.7,2.5-2.9,3.3
				c-1.2,0.7-2.5,1.1-4,1.1h-6.8v-2.3h2.6V333h-2.6v-2.3h6.8C488.1,330.6,489.5,331,490.7,331.7z M490.8,345.8
				c1.1-1.2,1.7-3,1.7-5.5s-0.6-4.4-1.7-5.5c-1.1-1.2-2.6-1.8-4.3-1.8h-1.9v14.6h1.9C488.2,347.6,489.7,347,490.8,345.8z"/>
		</g>
	</g>
	<g>
		<g>
			<path d="M346.1,406.3v5.6h-10.8v-2.3c0.1-1.6,0.5-2.8,1.3-3.8s2-2,3.6-2.9c0.9-0.5,1.6-1,2.1-1.3s0.8-0.7,1.1-1.1
				c0.2-0.4,0.3-0.8,0.3-1.3c0-0.8-0.3-1.5-0.8-2s-1.2-0.8-2-0.8c-1.6,0-3.1,1-4.6,3l-1-1.7c1.7-2.4,3.6-3.6,5.8-3.6
				c0.8,0,1.5,0.2,2.2,0.6s1.3,1,1.7,1.7c0.4,0.8,0.7,1.7,0.7,2.7s-0.2,1.8-0.6,2.5s-0.9,1.3-1.5,1.8s-1.5,1.1-2.6,1.7
				c-0.9,0.5-1.6,1-2.1,1.3c-0.5,0.4-0.9,0.8-1.2,1.3c-0.3,0.5-0.5,1.1-0.5,1.9h7.1v-3.3L346.1,406.3L346.1,406.3z"/>
			<path d="M355.2,411.2c-0.9-0.7-1.7-1.8-2.3-3.1c-0.6-1.4-0.9-3-0.9-4.8s0.3-3.5,0.8-4.9c0.6-1.4,1.3-2.4,2.2-3.2
				c0.9-0.7,1.9-1.1,3-1.1s2,0.4,3,1.1c0.9,0.7,1.7,1.8,2.3,3.2c0.6,1.4,0.9,3,0.9,4.8s-0.3,3.5-0.9,4.8c-0.6,1.4-1.3,2.4-2.2,3.1
				c-0.9,0.7-1.9,1.1-3,1.1C357.1,412.3,356.1,411.9,355.2,411.2z M360.2,409.2c0.6-0.6,1.1-1.4,1.4-2.4s0.5-2.2,0.5-3.6
				c0-1.3-0.2-2.5-0.5-3.6c-0.4-1-0.8-1.8-1.4-2.4s-1.3-0.9-2.1-0.9c-0.8,0-1.5,0.3-2.1,0.9s-1.1,1.4-1.4,2.4s-0.5,2.2-0.5,3.6
				c0,1.3,0.2,2.5,0.5,3.6c0.3,1,0.8,1.8,1.4,2.4s1.3,0.9,2,0.9C358.9,410,359.6,409.7,360.2,409.2z"/>
			<path d="M386.6,409.6v2.3h-7v-2.3h2.9V398c-0.3,0.6-0.7,1-1.3,1.4c-0.5,0.4-1.1,0.7-1.7,0.8l-0.4-2.2c0.8-0.2,1.5-0.6,2.1-1.3
				c0.6-0.7,1.1-1.5,1.3-2.4h2v15.2h2.1V409.6z"/>
			<path d="M395.4,411.2c-0.9-0.7-1.7-1.8-2.3-3.1c-0.6-1.4-0.9-3-0.9-4.8s0.3-3.5,0.9-4.9s1.3-2.4,2.2-3.2c0.9-0.7,1.9-1.1,3-1.1
				s2,0.4,3,1.1c0.9,0.7,1.7,1.8,2.3,3.2c0.6,1.4,0.9,3,0.9,4.8s-0.3,3.5-0.8,4.8c-0.6,1.4-1.3,2.4-2.2,3.1c-0.9,0.7-1.9,1.1-3,1.1
				C397.3,412.3,396.4,411.9,395.4,411.2z M400.5,409.2c0.6-0.6,1.1-1.4,1.4-2.4s0.5-2.2,0.5-3.6c0-1.3-0.2-2.5-0.5-3.6
				c-0.4-1-0.8-1.8-1.4-2.4s-1.3-0.9-2.1-0.9c-0.8,0-1.5,0.3-2.1,0.9s-1.1,1.4-1.4,2.4s-0.5,2.2-0.5,3.6c0,1.3,0.2,2.5,0.5,3.6
				s0.8,1.8,1.4,2.4s1.3,0.9,2,0.9C399.1,410,399.8,409.7,400.5,409.2z"/>
			<path d="M413.5,411.2c-0.9-0.7-1.7-1.8-2.3-3.1c-0.6-1.4-0.9-3-0.9-4.8s0.3-3.5,0.8-4.9c0.6-1.4,1.3-2.4,2.2-3.2
				c0.9-0.7,1.9-1.1,3-1.1s2,0.4,3,1.1c0.9,0.7,1.7,1.8,2.3,3.2c0.6,1.4,0.9,3,0.9,4.8s-0.3,3.5-0.9,4.8c-0.6,1.4-1.3,2.4-2.2,3.1
				c-0.9,0.7-1.9,1.1-3,1.1C415.4,412.3,414.4,411.9,413.5,411.2z M418.5,409.2c0.6-0.6,1.1-1.4,1.4-2.4s0.5-2.2,0.5-3.6
				c0-1.3-0.2-2.5-0.5-3.6c-0.4-1-0.8-1.8-1.4-2.4s-1.3-0.9-2.1-0.9c-0.8,0-1.5,0.3-2.1,0.9s-1.1,1.4-1.4,2.4s-0.5,2.2-0.5,3.6
				c0,1.3,0.2,2.5,0.5,3.6s0.8,1.8,1.4,2.4s1.3,0.9,2,0.9C417.2,410,417.9,409.7,418.5,409.2z"/>
			<path d="M455.4,394.9h-2.6v9.5c0,1.5-0.3,2.8-0.8,4s-1.3,2.1-2.2,2.8c-0.9,0.7-2,1-3.2,1s-2.3-0.3-3.3-1
				c-0.9-0.7-1.7-1.6-2.2-2.8c-0.5-1.2-0.8-2.5-0.8-4v-9.5h-2.6v-2.3h7.2v2.3h-2.5v9.4c0,1,0.2,2,0.5,2.8c0.4,0.8,0.8,1.5,1.5,2
				c0.6,0.5,1.3,0.7,2.2,0.7c0.8,0,1.5-0.2,2.1-0.7s1.1-1.1,1.5-2c0.4-0.8,0.5-1.8,0.5-2.8v-9.4h-2.5v-2.3h7.2L455.4,394.9
				L455.4,394.9z"/>
			<path d="M470.9,403.4c0.9,0.9,1.4,2.2,1.4,3.7c0,1-0.2,1.9-0.6,2.7c-0.4,0.8-1,1.4-1.7,1.8s-1.5,0.6-2.4,0.6
				c-1,0-1.9-0.3-2.7-0.8c-0.9-0.6-1.7-1.3-2.4-2.4v2.8h-1.8v-6.5l1.2-0.1c0.7,1.4,1.6,2.6,2.6,3.4s2,1.2,3.1,1.2
				c0.8,0,1.4-0.2,1.9-0.7s0.7-1.1,0.7-1.8c0-0.8-0.3-1.6-1-2.2s-1.8-1.2-3.4-1.8c-1.7-0.6-2.9-1.4-3.7-2.4c-0.8-1-1.2-2.2-1.2-3.7
				c0-1,0.2-1.9,0.6-2.7c0.4-0.8,0.9-1.4,1.6-1.8s1.4-0.6,2.2-0.6c1.9,0,3.4,1,4.6,2.9v-2.5h1.8v6.4l-1.1,0.1
				c-0.6-1.5-1.3-2.6-2.1-3.4c-0.8-0.8-1.7-1.2-2.7-1.2c-0.8,0-1.4,0.2-2,0.7c-0.5,0.5-0.8,1.1-0.8,1.9s0.3,1.5,0.9,2.1
				s1.6,1.1,3,1.7C468.7,401.7,470,402.5,470.9,403.4z"/>
			<path d="M489,393.7c1.2,0.7,2.2,1.8,2.9,3.3c0.7,1.5,1.1,3.2,1.1,5.3c0,2.1-0.4,3.8-1.1,5.3s-1.7,2.5-2.9,3.3
				c-1.2,0.7-2.5,1.1-4,1.1h-6.8v-2.3h2.6v-14.6h-2.6v-2.3h6.8C486.4,392.6,487.8,393,489,393.7z M489.1,407.8
				c1.1-1.2,1.7-3,1.7-5.5s-0.6-4.4-1.7-5.5s-2.6-1.8-4.3-1.8h-1.9v14.6h1.9C486.5,409.6,487.9,409,489.1,407.8z"/>
		</g>
	</g>
	<g>
		<g>
			<path d="M341.2,463.7c0.8,0.4,1.4,1,1.9,1.9c0.5,0.8,0.7,1.9,0.7,3s-0.2,2-0.7,2.9s-1.1,1.6-1.8,2.1c-0.8,0.5-1.6,0.8-2.5,0.8
				c-1.1,0-2.2-0.2-3-0.7c-0.9-0.5-1.7-1-2.6-1.8l0.7-2.3c1.8,1.6,3.3,2.4,4.7,2.4c0.9,0,1.6-0.3,2.3-0.9c0.6-0.6,1-1.5,1-2.6
				c0-1-0.3-1.8-1-2.3c-0.6-0.5-1.5-0.8-2.6-0.8c-0.7,0-1.4,0.1-2,0.3c-0.7,0.2-1.4,0.5-2.2,1v-0.8l0,0v-9.5h9.4v2.4H336v4.9
				c1-0.4,2-0.5,2.9-0.5C339.6,463.1,340.5,463.3,341.2,463.7z"/>
			<path d="M352.6,473.1c-0.9-0.7-1.7-1.8-2.3-3.1c-0.6-1.4-0.9-3-0.9-4.8c0-1.9,0.3-3.5,0.8-4.9c0.6-1.4,1.3-2.4,2.2-3.2
				c0.9-0.7,1.9-1.1,3-1.1s2,0.4,3,1.1c0.9,0.7,1.7,1.8,2.3,3.2c0.6,1.4,0.9,3,0.9,4.8c0,1.9-0.3,3.5-0.9,4.8
				c-0.6,1.4-1.3,2.4-2.2,3.1c-0.9,0.7-1.9,1.1-3,1.1C354.5,474.2,353.5,473.9,352.6,473.1z M357.6,471.1c0.6-0.6,1.1-1.4,1.4-2.4
				s0.5-2.2,0.5-3.6c0-1.3-0.2-2.5-0.5-3.6c-0.4-1-0.8-1.8-1.4-2.4s-1.3-0.9-2.1-0.9c-0.8,0-1.5,0.3-2.1,0.9s-1.1,1.4-1.4,2.4
				s-0.5,2.2-0.5,3.6c0,1.3,0.2,2.5,0.5,3.6c0.3,1,0.8,1.8,1.4,2.4s1.3,0.9,2,0.9C356.3,472,357,471.7,357.6,471.1z"/>
			<path d="M379.6,473.1c-0.9-0.7-1.7-1.8-2.3-3.1c-0.6-1.4-0.9-3-0.9-4.8c0-1.9,0.3-3.5,0.9-4.9s1.3-2.4,2.2-3.2
				c0.9-0.7,1.9-1.1,3-1.1s2,0.4,3,1.1c0.9,0.7,1.7,1.8,2.3,3.2c0.6,1.4,0.9,3,0.9,4.8c0,1.9-0.3,3.5-0.8,4.8
				c-0.6,1.4-1.3,2.4-2.2,3.1c-0.9,0.7-1.9,1.1-3,1.1C381.6,474.2,380.6,473.9,379.6,473.1z M384.7,471.1c0.6-0.6,1.1-1.4,1.4-2.4
				s0.5-2.2,0.5-3.6c0-1.3-0.2-2.5-0.5-3.6c-0.4-1-0.8-1.8-1.4-2.4s-1.3-0.9-2.1-0.9c-0.8,0-1.5,0.3-2.1,0.9s-1.1,1.4-1.4,2.4
				s-0.5,2.2-0.5,3.6c0,1.3,0.2,2.5,0.5,3.6c0.3,1,0.8,1.8,1.4,2.4s1.3,0.9,2,0.9C383.4,472,384,471.7,384.7,471.1z"/>
			<path d="M397.7,473.1c-0.9-0.7-1.7-1.8-2.3-3.1c-0.6-1.4-0.9-3-0.9-4.8c0-1.9,0.3-3.5,0.8-4.9c0.6-1.4,1.3-2.4,2.2-3.2
				c0.9-0.7,1.9-1.1,3-1.1s2,0.4,3,1.1c0.9,0.7,1.7,1.8,2.3,3.2c0.6,1.4,0.9,3,0.9,4.8c0,1.9-0.3,3.5-0.9,4.8
				c-0.6,1.4-1.3,2.4-2.2,3.1c-0.9,0.7-1.9,1.1-3,1.1C399.6,474.2,398.6,473.9,397.7,473.1z M402.7,471.1c0.6-0.6,1.1-1.4,1.4-2.4
				s0.5-2.2,0.5-3.6c0-1.3-0.2-2.5-0.5-3.6c-0.4-1-0.8-1.8-1.4-2.4s-1.3-0.9-2.1-0.9c-0.8,0-1.5,0.3-2.1,0.9s-1.1,1.4-1.4,2.4
				s-0.5,2.2-0.5,3.6c0,1.3,0.2,2.5,0.5,3.6c0.3,1,0.8,1.8,1.4,2.4s1.3,0.9,2,0.9C401.4,472,402.1,471.7,402.7,471.1z"/>
			<path d="M415.8,473.1c-0.9-0.7-1.7-1.8-2.3-3.1c-0.6-1.4-0.9-3-0.9-4.8c0-1.9,0.3-3.5,0.8-4.9c0.6-1.4,1.3-2.4,2.2-3.2
				c0.9-0.7,1.9-1.1,3-1.1s2,0.4,3,1.1c0.9,0.7,1.7,1.8,2.3,3.2c0.6,1.4,0.9,3,0.9,4.8c0,1.9-0.3,3.5-0.9,4.8
				c-0.6,1.4-1.3,2.4-2.2,3.1c-0.9,0.7-1.9,1.1-3,1.1C417.7,474.2,416.7,473.9,415.8,473.1z M420.8,471.1c0.6-0.6,1.1-1.4,1.4-2.4
				s0.5-2.2,0.5-3.6c0-1.3-0.2-2.5-0.5-3.6c-0.4-1-0.8-1.8-1.4-2.4s-1.3-0.9-2.1-0.9c-0.8,0-1.5,0.3-2.1,0.9s-1.1,1.4-1.4,2.4
				s-0.5,2.2-0.5,3.6c0,1.3,0.2,2.5,0.5,3.6c0.3,1,0.8,1.8,1.4,2.4s1.3,0.9,2,0.9C419.5,472,420.2,471.7,420.8,471.1z"/>
			<path d="M457.7,456.9h-2.6v9.5c0,1.5-0.3,2.8-0.8,4s-1.3,2.1-2.2,2.8c-0.9,0.7-2,1-3.2,1s-2.3-0.3-3.3-1
				c-0.9-0.7-1.7-1.6-2.2-2.8c-0.5-1.2-0.8-2.5-0.8-4v-9.5H440v-2.3h7.2v2.3h-2.5v9.4c0,1,0.2,2,0.5,2.8c0.4,0.8,0.8,1.5,1.5,2
				c0.6,0.5,1.3,0.7,2.2,0.7c0.8,0,1.5-0.2,2.1-0.7s1.1-1.1,1.5-2c0.4-0.8,0.5-1.8,0.5-2.8v-9.4h-2.5v-2.3h7.2L457.7,456.9
				L457.7,456.9z"/>
			<path d="M473.2,465.4c0.9,0.9,1.4,2.2,1.4,3.7c0,1-0.2,1.9-0.6,2.7c-0.4,0.8-1,1.4-1.7,1.8s-1.5,0.6-2.4,0.6
				c-1,0-1.9-0.3-2.7-0.8c-0.9-0.6-1.7-1.3-2.4-2.4v2.8H463v-6.5l1.2-0.1c0.7,1.4,1.6,2.6,2.6,3.4s2,1.2,3.1,1.2
				c0.8,0,1.4-0.2,1.9-0.7c0.5-0.4,0.7-1.1,0.7-1.8c0-0.8-0.3-1.6-1-2.2s-1.8-1.2-3.4-1.8c-1.7-0.6-2.9-1.4-3.7-2.4
				c-0.8-1-1.2-2.2-1.2-3.7c0-1,0.2-1.9,0.6-2.7c0.4-0.8,0.9-1.4,1.6-1.8s1.4-0.6,2.2-0.6c1.9,0,3.4,1,4.6,2.9v-2.5h1.8v6.4
				l-1.1,0.1c-0.6-1.5-1.3-2.6-2.1-3.4c-0.8-0.8-1.7-1.2-2.7-1.2c-0.8,0-1.4,0.2-2,0.7c-0.5,0.5-0.8,1.1-0.8,1.9s0.3,1.5,0.9,2.1
				s1.6,1.1,3,1.7C471,463.6,472.3,464.5,473.2,465.4z"/>
			<path d="M491.3,455.7c1.2,0.7,2.2,1.8,2.9,3.3c0.7,1.5,1.1,3.2,1.1,5.3s-0.4,3.8-1.1,5.3s-1.7,2.5-2.9,3.3
				c-1.2,0.7-2.5,1.1-4,1.1h-6.8v-2.3h2.6v-14.6h-2.6v-2.3h6.8C488.7,454.6,490,454.9,491.3,455.7z M491.4,469.7
				c1.1-1.2,1.7-3,1.7-5.5s-0.6-4.4-1.7-5.5c-1.1-1.2-2.6-1.8-4.3-1.8h-1.9v14.6h1.9C488.8,471.5,490.2,470.9,491.4,469.7z"/>
		</g>
	</g>
	<g>
		<path d="M79.5,226c-1.2,1.1-2.9,1.7-5.2,1.8v3.5h-1.5v-3.4c-1.5-0.1-2.8-0.4-4.1-0.9s-2.3-1.1-3-1.9l0.9-1.7
			c0.7,0.7,1.6,1.3,2.7,1.7s2.3,0.7,3.6,0.8V218c-1.4-0.3-2.5-0.7-3.5-1.1s-1.7-1-2.3-1.7c-0.6-0.8-0.9-1.7-0.9-3
			c0-1.5,0.6-2.8,1.7-3.9c1.1-1,2.8-1.7,5-1.8V203h1.5v3.4c1.1,0,2.2,0.2,3.3,0.6c1.1,0.3,2,0.8,2.8,1.3l-0.8,1.8
			c-0.8-0.5-1.7-0.9-2.6-1.2s-1.8-0.5-2.7-0.5v8c1.5,0.4,2.7,0.7,3.6,1.1c0.9,0.4,1.7,0.9,2.4,1.7c0.6,0.8,1,1.8,1,3
			C81.3,223.6,80.7,225,79.5,226z M69.5,214.5c0.8,0.5,1.9,1,3.3,1.4v-7.5c-1.5,0.1-2.6,0.5-3.3,1.2s-1.1,1.5-1.1,2.5
			C68.4,213.2,68.8,214,69.5,214.5z M77.9,224.7c0.8-0.7,1.2-1.5,1.2-2.5c0-1.1-0.4-1.9-1.2-2.4c-0.8-0.5-2-1-3.5-1.4v7.5
			C75.9,225.8,77.1,225.4,77.9,224.7z"/>
		<path d="M98.3,217.4c1.1,1.1,1.7,2.5,1.7,4.2c0,1.2-0.3,2.3-0.9,3.2s-1.4,1.7-2.6,2.2s-2.5,0.8-4.2,0.8c-1.5,0-3-0.2-4.3-0.7
			c-1.4-0.5-2.4-1.1-3.3-2l1-1.7c0.7,0.7,1.6,1.3,2.8,1.8c1.2,0.5,2.4,0.7,3.7,0.7c1.7,0,3-0.4,4-1.1s1.4-1.8,1.4-3.1
			s-0.5-2.3-1.4-3.1c-0.9-0.7-2.4-1.1-4.3-1.1h-1.5v-1.6l5.8-7.3H85.7v-1.9h13.5v1.5l-5.9,7.5C95.4,215.8,97.1,216.4,98.3,217.4z"/>
		<path d="M107,226.5c-1.3-0.9-2.3-2.1-3-3.7c-0.7-1.6-1.1-3.5-1.1-5.7s0.4-4.1,1.1-5.7c0.7-1.6,1.7-2.8,3-3.7s2.7-1.3,4.3-1.3
			c1.6,0,3.1,0.4,4.3,1.3c1.3,0.9,2.3,2.1,3,3.7c0.7,1.6,1.1,3.5,1.1,5.7s-0.4,4.1-1.1,5.7s-1.7,2.8-3,3.7s-2.7,1.3-4.3,1.3
			S108.3,227.4,107,226.5z M114.6,224.8c0.9-0.7,1.7-1.7,2.2-3s0.8-2.9,0.8-4.7s-0.3-3.4-0.8-4.7s-1.2-2.3-2.2-3c-0.9-0.7-2-1-3.2-1
			s-2.3,0.3-3.2,1c-0.9,0.7-1.7,1.7-2.2,3s-0.8,2.9-0.8,4.7s0.3,3.4,0.8,4.7s1.2,2.3,2.2,3c0.9,0.7,2,1,3.2,1
			C112.6,225.9,113.6,225.5,114.6,224.8z"/>
		<path d="M126.8,226.5c-1.3-0.9-2.3-2.1-3-3.7c-0.7-1.6-1.1-3.5-1.1-5.7s0.4-4.1,1.1-5.7c0.7-1.6,1.7-2.8,3-3.7s2.7-1.3,4.3-1.3
			s3.1,0.4,4.3,1.3c1.3,0.9,2.3,2.1,3,3.7c0.7,1.6,1.1,3.5,1.1,5.7s-0.4,4.1-1.1,5.7s-1.7,2.8-3,3.7s-2.7,1.3-4.3,1.3
			C129.6,227.8,128.1,227.4,126.8,226.5z M134.4,224.8c0.9-0.7,1.7-1.7,2.2-3s0.8-2.9,0.8-4.7s-0.3-3.4-0.8-4.7s-1.2-2.3-2.2-3
			c-0.9-0.7-2-1-3.2-1s-2.3,0.3-3.2,1s-1.7,1.7-2.2,3s-0.8,2.9-0.8,4.7s0.3,3.4,0.8,4.7s1.2,2.3,2.2,3c0.9,0.7,2,1,3.2,1
			C132.4,225.9,133.5,225.5,134.4,224.8z"/>
		<path d="M146.7,226.5c-1.3-0.9-2.3-2.1-3-3.7c-0.7-1.6-1.1-3.5-1.1-5.7s0.4-4.1,1.1-5.7c0.7-1.6,1.7-2.8,3-3.7s2.7-1.3,4.3-1.3
			s3.1,0.4,4.3,1.3c1.3,0.9,2.3,2.1,3,3.7c0.7,1.6,1.1,3.5,1.1,5.7s-0.4,4.1-1.1,5.7s-1.7,2.8-3,3.7s-2.7,1.3-4.3,1.3
			S147.9,227.4,146.7,226.5z M154.2,224.8c0.9-0.7,1.7-1.7,2.2-3s0.8-2.9,0.8-4.7s-0.3-3.4-0.8-4.7s-1.2-2.3-2.2-3
			c-0.9-0.7-2-1-3.2-1s-2.3,0.3-3.2,1s-1.7,1.7-2.2,3s-0.8,2.9-0.8,4.7s0.3,3.4,0.8,4.7s1.2,2.3,2.2,3c0.9,0.7,2,1,3.2,1
			C152.2,225.9,153.3,225.5,154.2,224.8z"/>
	</g>
	<g>
		<path d="M81.5,288c-1.2,1.1-2.9,1.7-5.2,1.8v3.5h-1.5v-3.4c-1.5-0.1-2.8-0.4-4.1-0.9s-2.3-1.1-3-1.9l0.9-1.7
			c0.7,0.7,1.6,1.3,2.7,1.7c1.1,0.5,2.3,0.7,3.6,0.8V280c-1.4-0.3-2.5-0.7-3.5-1.1s-1.7-1-2.3-1.7c-0.6-0.8-0.9-1.7-0.9-3
			c0-1.5,0.6-2.8,1.7-3.9c1.1-1,2.8-1.7,5-1.8V265h1.5v3.4c1.1,0,2.2,0.2,3.3,0.6c1.1,0.3,2,0.8,2.8,1.3l-0.8,1.8
			c-0.8-0.5-1.7-0.9-2.6-1.2c-0.9-0.3-1.8-0.5-2.7-0.5v8c1.5,0.4,2.7,0.7,3.6,1.1s1.7,0.9,2.4,1.7c0.6,0.8,1,1.8,1,3
			C83.3,285.7,82.7,287,81.5,288z M71.5,276.5c0.8,0.5,1.9,1,3.3,1.4v-7.5c-1.5,0.1-2.6,0.5-3.3,1.2s-1.1,1.5-1.1,2.5
			C70.4,275.2,70.8,276,71.5,276.5z M79.9,286.8c0.8-0.7,1.2-1.5,1.2-2.5c0-1.1-0.4-1.9-1.2-2.4c-0.8-0.5-2-1-3.5-1.4v7.5
			C77.9,287.8,79.1,287.4,79.9,286.8z"/>
		<path d="M100.3,278.9c1.4,1.1,2.1,2.6,2.1,4.6c0,1.2-0.3,2.3-0.9,3.3s-1.4,1.7-2.6,2.3c-1.1,0.5-2.5,0.8-4.2,0.8
			c-1.5,0-2.9-0.2-4.3-0.7s-2.4-1.1-3.3-2l1-1.7c0.7,0.7,1.6,1.3,2.8,1.8c1.1,0.5,2.4,0.7,3.7,0.7c1.7,0,3.1-0.4,4-1.2
			c0.9-0.8,1.4-1.8,1.4-3.1c0-1.4-0.5-2.5-1.6-3.3c-1.1-0.7-2.9-1.1-5.4-1.1h-4.5l1.1-10.5h11.5v1.9h-9.6l-0.7,6.7h2.7
			C96.6,277.3,98.9,277.8,100.3,278.9z"/>
		<path d="M109.1,288.5c-1.3-0.9-2.3-2.1-3-3.7s-1.1-3.5-1.1-5.7s0.4-4.1,1.1-5.7s1.7-2.8,3-3.7c1.3-0.9,2.7-1.3,4.3-1.3
			c1.6,0,3.1,0.4,4.3,1.3c1.3,0.9,2.3,2.1,3,3.7s1.1,3.5,1.1,5.7s-0.4,4.1-1.1,5.7s-1.7,2.8-3,3.7c-1.3,0.9-2.7,1.3-4.3,1.3
			C111.8,289.8,110.3,289.4,109.1,288.5z M116.6,286.8c0.9-0.7,1.7-1.7,2.2-3s0.8-2.9,0.8-4.7s-0.3-3.4-0.8-4.7
			c-0.5-1.3-1.2-2.3-2.2-3c-0.9-0.7-2-1-3.2-1s-2.3,0.3-3.2,1c-0.9,0.7-1.7,1.7-2.2,3s-0.8,2.9-0.8,4.7s0.3,3.4,0.8,4.7
			c0.5,1.3,1.2,2.3,2.2,3c0.9,0.7,2,1,3.2,1C114.6,287.9,115.7,287.5,116.6,286.8z"/>
		<path d="M128.9,288.5c-1.3-0.9-2.3-2.1-3-3.7s-1.1-3.5-1.1-5.7s0.4-4.1,1.1-5.7s1.7-2.8,3-3.7c1.3-0.9,2.7-1.3,4.3-1.3
			s3.1,0.4,4.3,1.3c1.3,0.9,2.3,2.1,3,3.7s1.1,3.5,1.1,5.7s-0.4,4.1-1.1,5.7s-1.7,2.8-3,3.7c-1.3,0.9-2.7,1.3-4.3,1.3
			C131.6,289.8,130.2,289.4,128.9,288.5z M136.5,286.8c0.9-0.7,1.7-1.7,2.2-3s0.8-2.9,0.8-4.7s-0.3-3.4-0.8-4.7
			c-0.5-1.3-1.2-2.3-2.2-3c-0.9-0.7-2-1-3.2-1s-2.3,0.3-3.2,1s-1.7,1.7-2.2,3s-0.8,2.9-0.8,4.7s0.3,3.4,0.8,4.7
			c0.5,1.3,1.2,2.3,2.2,3c0.9,0.7,2,1,3.2,1C134.5,287.9,135.5,287.5,136.5,286.8z"/>
		<path d="M148.7,288.5c-1.3-0.9-2.3-2.1-3-3.7s-1.1-3.5-1.1-5.7s0.4-4.1,1.1-5.7c0.7-1.6,1.7-2.8,3-3.7c1.3-0.9,2.7-1.3,4.3-1.3
			s3.1,0.4,4.3,1.3c1.3,0.9,2.3,2.1,3,3.7s1.1,3.5,1.1,5.7s-0.4,4.1-1.1,5.7s-1.7,2.8-3,3.7c-1.3,0.9-2.7,1.3-4.3,1.3
			S150,289.4,148.7,288.5z M156.3,286.8c0.9-0.7,1.7-1.7,2.2-3s0.8-2.9,0.8-4.7s-0.3-3.4-0.8-4.7c-0.5-1.3-1.2-2.3-2.2-3
			c-0.9-0.7-2-1-3.2-1s-2.3,0.3-3.2,1s-1.7,1.7-2.2,3s-0.8,2.9-0.8,4.7s0.3,3.4,0.8,4.7c0.5,1.3,1.2,2.3,2.2,3c0.9,0.7,2,1,3.2,1
			C154.3,287.9,155.4,287.5,156.3,286.8z"/>
	</g>
	<g>
		<path d="M70.5,350c-1.2,1.1-2.9,1.7-5.2,1.8v3.5h-1.5v-3.4c-1.5-0.1-2.8-0.4-4.1-0.9s-2.3-1.1-3-1.9l0.9-1.7
			c0.7,0.7,1.6,1.3,2.7,1.7c1.1,0.5,2.3,0.7,3.6,0.8V342c-1.4-0.3-2.5-0.7-3.5-1.1s-1.7-1-2.3-1.7c-0.6-0.8-0.9-1.7-0.9-3
			c0-1.5,0.6-2.8,1.7-3.9c1.1-1,2.8-1.7,5-1.8V327h1.5v3.4c1.1,0,2.2,0.2,3.3,0.6c1.1,0.3,2,0.8,2.8,1.3l-0.8,1.8
			c-0.8-0.5-1.7-0.9-2.6-1.2c-0.9-0.3-1.8-0.5-2.7-0.5v8c1.5,0.4,2.7,0.7,3.6,1.1s1.7,0.9,2.4,1.7c0.6,0.8,1,1.8,1,3
			C72.3,347.7,71.7,349,70.5,350z M60.5,338.5c0.8,0.5,1.9,1,3.3,1.4v-7.5c-1.5,0.1-2.6,0.5-3.3,1.2s-1.1,1.5-1.1,2.5
			C59.4,337.2,59.8,338,60.5,338.5z M68.9,348.8c0.8-0.7,1.2-1.5,1.2-2.5c0-1.1-0.4-1.9-1.2-2.4c-0.8-0.5-2-1-3.5-1.4v7.5
			C66.9,349.8,68.1,349.4,68.9,348.8z"/>
		<path d="M82.9,330.7v21h-2.2v-19.1h-5v-1.9H82.9z"/>
		<path d="M90.9,350.5c-1.3-0.9-2.3-2.1-3-3.7s-1.1-3.5-1.1-5.7s0.4-4.1,1.1-5.7s1.7-2.8,3-3.7c1.3-0.9,2.7-1.3,4.3-1.3
			c1.6,0,3.1,0.4,4.3,1.3c1.3,0.9,2.3,2.1,3,3.7s1.1,3.5,1.1,5.7s-0.4,4.1-1.1,5.7s-1.7,2.8-3,3.7c-1.3,0.9-2.7,1.3-4.3,1.3
			S92.2,351.4,90.9,350.5z M98.5,348.8c0.9-0.7,1.7-1.7,2.2-3s0.8-2.9,0.8-4.7s-0.3-3.4-0.8-4.7c-0.5-1.3-1.2-2.3-2.2-3
			c-0.9-0.7-2-1-3.2-1s-2.3,0.3-3.2,1c-0.9,0.7-1.7,1.7-2.2,3s-0.8,2.9-0.8,4.7s0.3,3.4,0.8,4.7c0.5,1.3,1.2,2.3,2.2,3
			c0.9,0.7,2,1,3.2,1C96.5,349.9,97.6,349.5,98.5,348.8z"/>
		<path d="M117.8,350.5c-1.3-0.9-2.3-2.1-3-3.7s-1.1-3.5-1.1-5.7s0.4-4.1,1.1-5.7s1.7-2.8,3-3.7c1.3-0.9,2.7-1.3,4.3-1.3
			c1.6,0,3.1,0.4,4.3,1.3c1.3,0.9,2.3,2.1,3,3.7s1.1,3.5,1.1,5.7s-0.4,4.1-1.1,5.7s-1.7,2.8-3,3.7c-1.3,0.9-2.7,1.3-4.3,1.3
			S119,351.4,117.8,350.5z M125.3,348.8c0.9-0.7,1.7-1.7,2.2-3s0.8-2.9,0.8-4.7s-0.3-3.4-0.8-4.7c-0.5-1.3-1.2-2.3-2.2-3
			c-0.9-0.7-2-1-3.2-1s-2.3,0.3-3.2,1c-0.9,0.7-1.7,1.7-2.2,3s-0.8,2.9-0.8,4.7s0.3,3.4,0.8,4.7c0.5,1.3,1.2,2.3,2.2,3
			c0.9,0.7,2,1,3.2,1C123.3,349.9,124.4,349.5,125.3,348.8z"/>
		<path d="M137.6,350.5c-1.3-0.9-2.3-2.1-3-3.7s-1.1-3.5-1.1-5.7s0.4-4.1,1.1-5.7c0.7-1.6,1.7-2.8,3-3.7c1.3-0.9,2.7-1.3,4.3-1.3
			s3.1,0.4,4.3,1.3c1.3,0.9,2.3,2.1,3,3.7s1.1,3.5,1.1,5.7s-0.4,4.1-1.1,5.7s-1.7,2.8-3,3.7c-1.3,0.9-2.7,1.3-4.3,1.3
			S138.9,351.4,137.6,350.5z M145.1,348.8c0.9-0.7,1.7-1.7,2.2-3s0.8-2.9,0.8-4.7s-0.3-3.4-0.8-4.7c-0.5-1.3-1.2-2.3-2.2-3
			c-0.9-0.7-2-1-3.2-1s-2.3,0.3-3.2,1s-1.7,1.7-2.2,3s-0.8,2.9-0.8,4.7s0.3,3.4,0.8,4.7c0.5,1.3,1.2,2.3,2.2,3c0.9,0.7,2,1,3.2,1
			C143.1,349.9,144.2,349.5,145.1,348.8z"/>
		<path d="M157.4,350.5c-1.3-0.9-2.3-2.1-3-3.7s-1.1-3.5-1.1-5.7s0.4-4.1,1.1-5.7c0.7-1.6,1.7-2.8,3-3.7c1.3-0.9,2.7-1.3,4.3-1.3
			s3.1,0.4,4.3,1.3c1.3,0.9,2.3,2.1,3,3.7s1.1,3.5,1.1,5.7s-0.4,4.1-1.1,5.7s-1.7,2.8-3,3.7c-1.3,0.9-2.7,1.3-4.3,1.3
			C160.1,351.8,158.7,351.4,157.4,350.5z M165,348.8c0.9-0.7,1.7-1.7,2.2-3s0.8-2.9,0.8-4.7s-0.3-3.4-0.8-4.7
			c-0.5-1.3-1.2-2.3-2.2-3c-0.9-0.7-2-1-3.2-1s-2.3,0.3-3.2,1s-1.7,1.7-2.2,3s-0.8,2.9-0.8,4.7s0.3,3.4,0.8,4.7
			c0.5,1.3,1.2,2.3,2.2,3c0.9,0.7,2,1,3.2,1C163,349.9,164,349.5,165,348.8z"/>
	</g>
	<g>
		<path d="M66.5,412c-1.2,1.1-2.9,1.7-5.2,1.8v3.5h-1.5v-3.4c-1.5-0.1-2.8-0.4-4.1-0.9s-2.3-1.1-3-1.9l0.9-1.7
			c0.7,0.7,1.6,1.3,2.7,1.7c1.1,0.5,2.3,0.7,3.6,0.8V404c-1.4-0.3-2.5-0.7-3.5-1.1s-1.7-1-2.3-1.7c-0.6-0.8-0.9-1.7-0.9-3
			c0-1.5,0.6-2.8,1.7-3.9c1.1-1,2.8-1.7,5-1.8V389h1.5v3.4c1.1,0,2.2,0.2,3.3,0.6c1.1,0.3,2,0.8,2.8,1.3l-0.8,1.8
			c-0.8-0.5-1.7-0.9-2.6-1.2c-0.9-0.3-1.8-0.5-2.7-0.5v8c1.5,0.4,2.7,0.7,3.6,1.1s1.7,0.9,2.4,1.7c0.6,0.8,1,1.8,1,3
			C68.3,409.7,67.7,411,66.5,412z M56.5,400.5c0.8,0.5,1.9,1,3.3,1.4v-7.5c-1.5,0.1-2.6,0.5-3.3,1.2s-1.1,1.5-1.1,2.5
			C55.4,399.2,55.8,400,56.5,400.5z M64.9,410.8c0.8-0.7,1.2-1.5,1.2-2.5c0-1.1-0.4-1.9-1.2-2.4c-0.8-0.5-2-1-3.5-1.4v7.5
			C62.9,411.8,64.1,411.4,64.9,410.8z"/>
		<path d="M87.4,411.7v1.9H72.7v-1.5l8.7-8.5c1.1-1.1,1.8-2,2.2-2.8c0.4-0.8,0.6-1.6,0.6-2.4c0-1.2-0.4-2.2-1.3-2.9
			c-0.9-0.7-2.1-1-3.6-1c-2.5,0-4.4,0.8-5.7,2.3l-1.5-1.3c0.8-1,1.9-1.7,3.1-2.2s2.7-0.8,4.3-0.8c2.1,0,3.8,0.5,5.1,1.5
			c1.2,1,1.9,2.4,1.9,4.2c0,1.1-0.2,2.1-0.7,3.1s-1.4,2.2-2.7,3.5l-7.1,7h11.4V411.7z"/>
		<path d="M94,412.5c-1.3-0.9-2.3-2.1-3-3.7s-1.1-3.5-1.1-5.7s0.4-4.1,1.1-5.7s1.7-2.8,3-3.7c1.3-0.9,2.7-1.3,4.3-1.3
			c1.6,0,3.1,0.4,4.3,1.3c1.3,0.9,2.3,2.1,3,3.7s1.1,3.5,1.1,5.7s-0.4,4.1-1.1,5.7s-1.7,2.8-3,3.7c-1.3,0.9-2.7,1.3-4.3,1.3
			S95.3,413.4,94,412.5z M101.6,410.8c0.9-0.7,1.7-1.7,2.2-3s0.8-2.9,0.8-4.7s-0.3-3.4-0.8-4.7c-0.5-1.3-1.2-2.3-2.2-3
			c-0.9-0.7-2-1-3.2-1s-2.3,0.3-3.2,1c-0.9,0.7-1.7,1.7-2.2,3s-0.8,2.9-0.8,4.7s0.3,3.4,0.8,4.7c0.5,1.3,1.2,2.3,2.2,3
			c0.9,0.7,2,1,3.2,1C99.6,411.9,100.6,411.5,101.6,410.8z"/>
		<path d="M119.8,412.5c-1.3-0.9-2.3-2.1-3-3.7s-1.1-3.5-1.1-5.7s0.4-4.1,1.1-5.7s1.7-2.8,3-3.7c1.3-0.9,2.7-1.3,4.3-1.3
			c1.6,0,3.1,0.4,4.3,1.3c1.3,0.9,2.3,2.1,3,3.7s1.1,3.5,1.1,5.7s-0.4,4.1-1.1,5.7s-1.7,2.8-3,3.7c-1.3,0.9-2.7,1.3-4.3,1.3
			C122.6,413.8,121.1,413.4,119.8,412.5z M127.4,410.8c0.9-0.7,1.7-1.7,2.2-3s0.8-2.9,0.8-4.7s-0.3-3.4-0.8-4.7
			c-0.5-1.3-1.2-2.3-2.2-3c-0.9-0.7-2-1-3.2-1s-2.3,0.3-3.2,1c-0.9,0.7-1.7,1.7-2.2,3s-0.8,2.9-0.8,4.7s0.3,3.4,0.8,4.7
			c0.5,1.3,1.2,2.3,2.2,3c0.9,0.7,2,1,3.2,1C125.4,411.9,126.5,411.5,127.4,410.8z"/>
		<path d="M139.7,412.5c-1.3-0.9-2.3-2.1-3-3.7s-1.1-3.5-1.1-5.7s0.4-4.1,1.1-5.7c0.7-1.6,1.7-2.8,3-3.7c1.3-0.9,2.7-1.3,4.3-1.3
			s3.1,0.4,4.3,1.3c1.3,0.9,2.3,2.1,3,3.7s1.1,3.5,1.1,5.7s-0.4,4.1-1.1,5.7s-1.7,2.8-3,3.7c-1.3,0.9-2.7,1.3-4.3,1.3
			S140.9,413.4,139.7,412.5z M147.2,410.8c0.9-0.7,1.7-1.7,2.2-3s0.8-2.9,0.8-4.7s-0.3-3.4-0.8-4.7c-0.5-1.3-1.2-2.3-2.2-3
			c-0.9-0.7-2-1-3.2-1s-2.3,0.3-3.2,1s-1.7,1.7-2.2,3s-0.8,2.9-0.8,4.7s0.3,3.4,0.8,4.7c0.5,1.3,1.2,2.3,2.2,3c0.9,0.7,2,1,3.2,1
			C145.2,411.9,146.3,411.5,147.2,410.8z"/>
		<path d="M159.5,412.5c-1.3-0.9-2.3-2.1-3-3.7s-1.1-3.5-1.1-5.7s0.4-4.1,1.1-5.7c0.7-1.6,1.7-2.8,3-3.7c1.3-0.9,2.7-1.3,4.3-1.3
			s3.1,0.4,4.3,1.3c1.3,0.9,2.3,2.1,3,3.7s1.1,3.5,1.1,5.7s-0.4,4.1-1.1,5.7s-1.7,2.8-3,3.7c-1.3,0.9-2.7,1.3-4.3,1.3
			S160.8,413.4,159.5,412.5z M167.1,410.8c0.9-0.7,1.7-1.7,2.2-3s0.8-2.9,0.8-4.7s-0.3-3.4-0.8-4.7c-0.5-1.3-1.2-2.3-2.2-3
			c-0.9-0.7-2-1-3.2-1s-2.3,0.3-3.2,1s-1.7,1.7-2.2,3s-0.8,2.9-0.8,4.7s0.3,3.4,0.8,4.7c0.5,1.3,1.2,2.3,2.2,3c0.9,0.7,2,1,3.2,1
			C165.1,411.9,166.1,411.5,167.1,410.8z"/>
	</g>
	<g>
		<path d="M67.5,474c-1.2,1.1-2.9,1.7-5.2,1.8v3.5h-1.5v-3.4c-1.5-0.1-2.8-0.4-4.1-0.9s-2.3-1.1-3-1.9l0.9-1.7
			c0.7,0.7,1.6,1.3,2.7,1.7c1.1,0.5,2.3,0.7,3.6,0.8V466c-1.4-0.3-2.5-0.7-3.5-1.1s-1.7-1-2.3-1.7c-0.6-0.8-0.9-1.7-0.9-3
			c0-1.5,0.6-2.8,1.7-3.9c1.1-1,2.8-1.7,5-1.8V451h1.5v3.4c1.1,0,2.2,0.2,3.3,0.6c1.1,0.3,2,0.8,2.8,1.3l-0.8,1.8
			c-0.8-0.5-1.7-0.9-2.6-1.2c-0.9-0.3-1.8-0.5-2.7-0.5v8c1.5,0.4,2.7,0.7,3.6,1.1s1.7,0.9,2.4,1.7c0.6,0.8,1,1.8,1,3
			C69.3,471.7,68.7,473,67.5,474z M57.5,462.5c0.8,0.5,1.9,1,3.3,1.4v-7.5c-1.5,0.1-2.6,0.5-3.3,1.2s-1.1,1.5-1.1,2.5
			C56.4,461.2,56.8,462,57.5,462.5z M65.9,472.8c0.8-0.7,1.2-1.5,1.2-2.5c0-1.1-0.4-1.9-1.2-2.4c-0.8-0.5-2-1-3.5-1.4v7.5
			C63.9,473.8,65.1,473.4,65.9,472.8z"/>
		<path d="M85.3,464.9c1.4,1.1,2.1,2.6,2.1,4.6c0,1.2-0.3,2.3-0.9,3.3s-1.4,1.7-2.6,2.3c-1.1,0.5-2.5,0.8-4.2,0.8
			c-1.5,0-2.9-0.2-4.3-0.7s-2.4-1.1-3.3-2l1-1.7c0.7,0.7,1.6,1.3,2.8,1.8c1.1,0.5,2.4,0.7,3.7,0.7c1.7,0,3.1-0.4,4-1.2
			c0.9-0.8,1.4-1.8,1.4-3.1c0-1.4-0.5-2.5-1.6-3.3c-1.1-0.7-2.9-1.1-5.4-1.1h-4.5l1.1-10.5h11.5v1.9h-9.6l-0.7,6.7h2.7
			C81.6,463.3,83.9,463.8,85.3,464.9z"/>
		<path d="M94.1,474.5c-1.3-0.9-2.3-2.1-3-3.7s-1.1-3.5-1.1-5.7s0.4-4.1,1.1-5.7s1.7-2.8,3-3.7c1.3-0.9,2.7-1.3,4.3-1.3
			c1.6,0,3.1,0.4,4.3,1.3c1.3,0.9,2.3,2.1,3,3.7s1.1,3.5,1.1,5.7s-0.4,4.1-1.1,5.7s-1.7,2.8-3,3.7c-1.3,0.9-2.7,1.3-4.3,1.3
			C96.8,475.8,95.3,475.4,94.1,474.5z M101.6,472.8c0.9-0.7,1.7-1.7,2.2-3s0.8-2.9,0.8-4.7s-0.3-3.4-0.8-4.7c-0.5-1.3-1.2-2.3-2.2-3
			c-0.9-0.7-2-1-3.2-1s-2.3,0.3-3.2,1c-0.9,0.7-1.7,1.7-2.2,3s-0.8,2.9-0.8,4.7s0.3,3.4,0.8,4.7c0.5,1.3,1.2,2.3,2.2,3
			c0.9,0.7,2,1,3.2,1C99.6,473.9,100.7,473.5,101.6,472.8z"/>
		<path d="M119.9,474.5c-1.3-0.9-2.3-2.1-3-3.7s-1.1-3.5-1.1-5.7s0.4-4.1,1.1-5.7s1.7-2.8,3-3.7c1.3-0.9,2.7-1.3,4.3-1.3
			c1.6,0,3.1,0.4,4.3,1.3c1.3,0.9,2.3,2.1,3,3.7s1.1,3.5,1.1,5.7s-0.4,4.1-1.1,5.7s-1.7,2.8-3,3.7c-1.3,0.9-2.7,1.3-4.3,1.3
			C122.6,475.8,121.2,475.4,119.9,474.5z M127.5,472.8c0.9-0.7,1.7-1.7,2.2-3s0.8-2.9,0.8-4.7s-0.3-3.4-0.8-4.7
			c-0.5-1.3-1.2-2.3-2.2-3c-0.9-0.7-2-1-3.2-1s-2.3,0.3-3.2,1c-0.9,0.7-1.7,1.7-2.2,3s-0.8,2.9-0.8,4.7s0.3,3.4,0.8,4.7
			c0.5,1.3,1.2,2.3,2.2,3c0.9,0.7,2,1,3.2,1C125.5,473.9,126.5,473.5,127.5,472.8z"/>
		<path d="M139.7,474.5c-1.3-0.9-2.3-2.1-3-3.7s-1.1-3.5-1.1-5.7s0.4-4.1,1.1-5.7c0.7-1.6,1.7-2.8,3-3.7c1.3-0.9,2.7-1.3,4.3-1.3
			s3.1,0.4,4.3,1.3c1.3,0.9,2.3,2.1,3,3.7s1.1,3.5,1.1,5.7s-0.4,4.1-1.1,5.7s-1.7,2.8-3,3.7c-1.3,0.9-2.7,1.3-4.3,1.3
			S141,475.4,139.7,474.5z M147.3,472.8c0.9-0.7,1.7-1.7,2.2-3s0.8-2.9,0.8-4.7s-0.3-3.4-0.8-4.7c-0.5-1.3-1.2-2.3-2.2-3
			c-0.9-0.7-2-1-3.2-1s-2.3,0.3-3.2,1s-1.7,1.7-2.2,3s-0.8,2.9-0.8,4.7s0.3,3.4,0.8,4.7c0.5,1.3,1.2,2.3,2.2,3c0.9,0.7,2,1,3.2,1
			C145.3,473.9,146.4,473.5,147.3,472.8z"/>
		<path d="M159.6,474.5c-1.3-0.9-2.3-2.1-3-3.7s-1.1-3.5-1.1-5.7s0.4-4.1,1.1-5.7c0.7-1.6,1.7-2.8,3-3.7c1.3-0.9,2.7-1.3,4.3-1.3
			s3.1,0.4,4.3,1.3c1.3,0.9,2.3,2.1,3,3.7s1.1,3.5,1.1,5.7s-0.4,4.1-1.1,5.7s-1.7,2.8-3,3.7c-1.3,0.9-2.7,1.3-4.3,1.3
			S160.8,475.4,159.6,474.5z M167.1,472.8c0.9-0.7,1.7-1.7,2.2-3s0.8-2.9,0.8-4.7s-0.3-3.4-0.8-4.7c-0.5-1.3-1.2-2.3-2.2-3
			c-0.9-0.7-2-1-3.2-1s-2.3,0.3-3.2,1s-1.7,1.7-2.2,3s-0.8,2.9-0.8,4.7s0.3,3.4,0.8,4.7c0.5,1.3,1.2,2.3,2.2,3c0.9,0.7,2,1,3.2,1
			C165.1,473.9,166.2,473.5,167.1,472.8z"/>
	</g>
	<g>
		<path d="M110.4,346.9c0.4,0.4,0.5,0.8,0.5,1.4c0,0.3,0,0.5-0.1,0.8c-0.1,0.3-0.2,0.7-0.4,1.2l-1.1,2.9h-2l0.9-3.2
			c-0.3-0.1-0.6-0.4-0.8-0.7c-0.2-0.3-0.3-0.7-0.3-1c0-0.6,0.2-1,0.5-1.4c0.4-0.4,0.8-0.5,1.4-0.5S110.1,346.6,110.4,346.9z"/>
	</g>
	<g>
		<path d="M112.2,408.7c0.4,0.4,0.5,0.8,0.5,1.4c0,0.3,0,0.5-0.1,0.8c-0.1,0.3-0.2,0.7-0.4,1.2l-1.1,2.9h-2l0.9-3.2
			c-0.3-0.1-0.6-0.4-0.8-0.7c-0.2-0.3-0.3-0.7-0.3-1c0-0.6,0.2-1,0.5-1.4c0.4-0.4,0.8-0.5,1.4-0.5S111.9,408.4,112.2,408.7z"/>
	</g>
	<g>
		<path d="M112.9,470c0.4,0.4,0.5,0.8,0.5,1.4c0,0.3,0,0.5-0.1,0.8c-0.1,0.3-0.2,0.7-0.4,1.2l-1.1,2.9h-2l0.9-3.2
			c-0.3-0.1-0.6-0.4-0.8-0.7c-0.2-0.3-0.3-0.7-0.3-1c0-0.6,0.2-1,0.5-1.4c0.4-0.4,0.8-0.5,1.4-0.5S112.5,469.6,112.9,470z"/>
	</g>
</g>
<g>
	<path d="M237.1,412.4c-1.5-1-2.8-2.5-3.8-4.5c-1-2-1.5-4.4-1.5-7.2s0.5-5.2,1.5-7.2c1-2,2.3-3.5,3.8-4.5s3.1-1.5,4.8-1.5
		c1.6,0,3.2,0.5,4.8,1.5s2.8,2.5,3.8,4.5c1,2,1.5,4.4,1.5,7.2s-0.5,5.2-1.5,7.2c-1,2-2.3,3.5-3.8,4.5c-1.6,1-3.1,1.5-4.8,1.5
		C240.2,413.9,238.6,413.4,237.1,412.4z M244.4,408c0.8-0.7,1.4-1.7,1.8-2.9c0.5-1.3,0.7-2.7,0.7-4.4c0-1.7-0.2-3.2-0.6-4.4
		c-0.4-1.3-1-2.2-1.8-2.9c-0.8-0.7-1.6-1-2.6-1c-0.9,0-1.8,0.3-2.5,1c-0.8,0.7-1.4,1.7-1.8,2.9c-0.4,1.3-0.7,2.7-0.7,4.4
		s0.2,3.1,0.7,4.4c0.4,1.3,1,2.2,1.8,2.9c0.8,0.7,1.6,1,2.5,1C242.8,409.1,243.7,408.7,244.4,408z"/>
	<path d="M253.9,412.9c-0.6-0.7-1-1.5-1-2.5c0-1,0.3-1.9,1-2.6c0.6-0.7,1.4-1,2.3-1c1,0,1.8,0.3,2.4,1c0.6,0.7,0.9,1.5,0.9,2.6
		c0,1-0.3,1.9-0.9,2.5c-0.6,0.6-1.4,1-2.4,1C255.3,413.9,254.6,413.6,253.9,412.9z"/>
	<path d="M274.8,398.1c1.3,0.6,2.3,1.5,3.1,2.8c0.8,1.3,1.2,2.8,1.2,4.7c0,1.6-0.4,3.1-1.1,4.5c-0.7,1.4-1.7,2.5-2.9,3.3
		c-1.2,0.8-2.6,1.2-4.1,1.2c-0.3,0-0.5,0-0.7,0c-1.8-0.1-3.4-0.5-4.7-1.1c-1.3-0.6-2.6-1.4-3.9-2.3l1.5-5.2c1.2,1.1,2.5,1.9,3.8,2.5
		c1.3,0.6,2.4,0.9,3.4,0.9c1.1,0,2-0.3,2.8-0.9c0.8-0.6,1.2-1.5,1.2-2.8c0-1-0.4-1.8-1.2-2.4s-1.8-0.9-3.2-0.9
		c-1.2,0-2.2,0.1-3.1,0.4c-0.9,0.3-2.1,0.7-3.6,1.3v-16h15.2v5.3h-10.7v4.2c1-0.2,2-0.4,3-0.4C272.2,397.2,273.5,397.5,274.8,398.1z
		"/>
</g>
<g>
	<path d="M284.7,402.6c-0.6-0.1-1.1-0.3-1.5-0.7s-0.7-0.8-0.9-1.3c-0.2-0.6-0.2-1.1,0-1.6c0.2-0.5,0.5-1,0.9-1.4
		c0.4-0.4,0.9-0.7,1.5-0.8c0.6-0.2,1.2-0.2,1.7-0.1s1,0.3,1.5,0.7c0.4,0.3,0.7,0.8,0.9,1.4c0.2,0.5,0.2,1.1,0,1.6
		c-0.2,0.5-0.4,1-0.9,1.4c-0.4,0.4-0.9,0.7-1.5,0.9C285.8,402.7,285.2,402.7,284.7,402.6z M286.4,400.1c0.1-0.2,0.2-0.5,0.1-0.8
		c-0.1-0.3-0.3-0.5-0.5-0.6c-0.2-0.1-0.5-0.1-0.8,0c-0.3,0.1-0.5,0.2-0.7,0.5c-0.2,0.2-0.2,0.5-0.1,0.8c0.1,0.3,0.3,0.5,0.5,0.6
		s0.5,0.1,0.8,0.1C286.1,400.5,286.3,400.3,286.4,400.1z M285.5,408.1l8-14.4l1.8,0.9l-7.9,14.4L285.5,408.1z M294.5,406.1
		c-0.6-0.1-1.1-0.3-1.5-0.6c-0.4-0.3-0.7-0.8-0.9-1.4c-0.2-0.5-0.2-1.1,0-1.6c0.2-0.5,0.5-1,0.9-1.4c0.4-0.4,0.9-0.7,1.5-0.9
		c0.6-0.2,1.1-0.2,1.7-0.1c0.6,0.1,1.1,0.3,1.5,0.7c0.4,0.4,0.7,0.8,0.9,1.4c0.2,0.6,0.2,1.1,0,1.6c-0.2,0.5-0.5,1-0.9,1.4
		c-0.4,0.4-0.9,0.7-1.5,0.8C295.7,406.2,295.1,406.2,294.5,406.1z M296.3,403.6c0.2-0.2,0.2-0.5,0.1-0.8c-0.1-0.3-0.3-0.5-0.5-0.6
		c-0.3-0.1-0.5-0.1-0.8-0.1c-0.3,0.1-0.5,0.3-0.6,0.5c-0.1,0.2-0.2,0.5-0.1,0.8c0.1,0.3,0.3,0.5,0.5,0.6c0.2,0.1,0.5,0.1,0.8,0
		C296,404,296.2,403.8,296.3,403.6z"/>
</g>
<g>
	<path d="M368.3,345.7c0.4,0.4,0.5,0.8,0.5,1.4c0,0.3,0,0.5-0.1,0.8c-0.1,0.3-0.2,0.7-0.4,1.2l-1.1,2.9h-2l0.9-3.2
		c-0.3-0.1-0.6-0.4-0.8-0.7c-0.2-0.3-0.3-0.7-0.3-1c0-0.6,0.2-1,0.5-1.4c0.4-0.4,0.8-0.5,1.4-0.5S367.9,345.3,368.3,345.7z"/>
</g>
<g>
	<path d="M372.3,407.7c0.4,0.4,0.5,0.8,0.5,1.4c0,0.3,0,0.5-0.1,0.8c-0.1,0.3-0.2,0.7-0.4,1.2l-1.1,2.9h-2l0.9-3.2
		c-0.3-0.1-0.6-0.4-0.8-0.7c-0.2-0.3-0.3-0.7-0.3-1c0-0.6,0.2-1,0.5-1.4c0.4-0.4,0.8-0.5,1.4-0.5S372,407.4,372.3,407.7z"/>
</g>
<g>
	<path d="M371.1,469c0.4,0.4,0.5,0.8,0.5,1.4c0,0.3,0,0.5-0.1,0.8c-0.1,0.3-0.2,0.7-0.4,1.2l-1.1,2.9h-2l0.9-3.2
		c-0.3-0.1-0.6-0.4-0.8-0.7c-0.2-0.3-0.3-0.7-0.3-1c0-0.6,0.2-1,0.5-1.4c0.4-0.4,0.8-0.5,1.4-0.5S370.7,468.7,371.1,469z"/>
</g>
</svg>
