<svg width="26" height="26" viewBox="0 0 26 26" fill="none" xmlns="http://www.w3.org/2000/svg">
<path d="M22.1924 3.80758C19.737 1.35225 16.4724 0 13 0C9.52758 0 6.263 1.35225 3.80758 3.80758C1.35225 6.263 0 9.52758 0 13C0 16.4724 1.35225 19.737 3.80758 22.1924C6.263 24.6477 9.52758 26 13 26C16.4724 26 19.737 24.6477 22.1924 22.1924C24.6477 19.737 26 16.4724 26 13C26 9.52758 24.6477 6.263 22.1924 3.80758ZM17.5894 7.64893C19.2747 7.64893 20.6458 9.02002 20.6458 10.7053H19.1223C19.1223 9.86004 18.4347 9.17236 17.5894 9.17236C16.7441 9.17236 16.0564 9.86004 16.0564 10.7053H14.5329C14.533 9.02002 15.9041 7.64893 17.5894 7.64893ZM8.41064 7.64893C10.096 7.64893 11.4671 9.02002 11.4671 10.7053H9.94363C9.94363 9.86004 9.25595 9.17236 8.41064 9.17236C7.56534 9.17236 6.87766 9.86004 6.87766 10.7053H5.35422C5.35427 9.02002 6.72537 7.64893 8.41064 7.64893ZM13 21.4106C9.65545 21.4106 6.62888 19.43 5.28958 16.3646L6.68555 15.7546C7.78243 18.2651 10.261 19.8872 13 19.8872C15.739 19.8872 18.2175 18.2651 19.3144 15.7547L20.7104 16.3647C19.3711 19.43 16.3446 21.4106 13 21.4106Z" fill="#5BE14F"/>
</svg>