<svg width="96" height="96" viewBox="0 0 96 96" fill="none" xmlns="http://www.w3.org/2000/svg">
<path d="M93.255 13.124C91.8427 11.7093 89.5513 11.7068 88.1391 13.118L44.7341 56.4083L29.0737 39.3996C27.7206 37.9308 25.4327 37.8355 23.9614 39.1885C22.4912 40.5417 22.3971 42.8307 23.7502 44.3009L41.9614 64.0786C42.6283 64.8034 43.5617 65.2244 44.5459 65.2448C44.5723 65.2459 44.5978 65.2459 44.6231 65.2459C45.5796 65.2459 46.4996 64.8661 47.1774 64.1907L93.2479 18.241C94.6637 16.8301 94.6661 14.5386 93.255 13.124Z" fill="#F3F3F3"/>
<path d="M92.3818 44.3818C90.3834 44.3818 88.7638 46.0014 88.7638 48C88.7638 70.4781 70.4781 88.7638 48 88.7638C25.5233 88.7638 7.23619 70.4781 7.23619 48C7.23619 25.5233 25.5233 7.23619 48 7.23619C49.9984 7.23619 51.6182 5.61656 51.6182 3.61819C51.6182 1.61963 49.9984 0 48 0C21.5325 0 0 21.5325 0 48C0 74.4664 21.5325 96 48 96C74.4664 96 96 74.4664 96 48C96 46.0016 94.3804 44.3818 92.3818 44.3818Z" fill="#F3F3F3"/>
</svg>
