<svg width="641" height="117" viewBox="0 0 641 117" fill="none" xmlns="http://www.w3.org/2000/svg">
<path d="M56.5804 0.0964104C70.7453 0.493582 82.831 4.33291 93.2923 12.9383C94.5918 13.9974 96.0213 14.5932 97.7757 14.4608C105.768 13.865 113.435 15.2551 120.518 19.0283C132.408 25.3168 140.011 35.3785 142.87 48.5514C145.534 60.9961 143.519 72.9774 136.502 83.7011C130.134 93.4318 120.972 99.3894 109.861 101.905C105.833 102.832 101.479 103.626 97.2559 102.567C95.1116 102.037 93.942 103.758 92.5775 104.817C85.4951 110.51 77.5029 113.952 68.731 115.872C63.3379 117.064 57.8799 117.196 52.4868 116.799C41.3108 115.938 30.9795 112.231 22.0776 105.082C15.2551 99.6542 9.73204 93.1008 5.96338 85.2236C2.77952 78.604 1.02514 71.5873 0.310398 64.1735C-0.599278 55.1047 0.505328 46.4993 3.42929 38.0925C7.84771 25.5816 15.7099 15.8509 26.8859 8.768C33.5785 4.5315 40.856 1.94988 48.5882 0.758363C51.4472 0.361192 54.4361 -0.234566 56.5804 0.0964104ZM87.5093 16.2481C87.1195 15.1889 86.4697 14.858 85.755 14.3946C74.449 6.64975 62.1034 4.00193 48.5882 6.25257C38.1919 7.97365 29.3551 12.6735 21.8827 19.8888C17.2044 24.3901 13.6307 29.9505 10.9016 36.1067C6.41822 46.3007 5.37859 56.9582 7.00301 67.8142C7.97767 74.5661 10.3818 80.9871 13.8906 86.8785C19.9984 97.1387 28.5104 104.486 39.4914 108.591C47.1587 111.437 55.0859 112.364 63.3379 111.371C72.4997 110.245 80.4269 106.737 87.8992 101.441C67.3665 94.6233 54.0463 75.4929 57.4251 51.3316C59.8942 33.9884 72.4997 20.4846 87.5093 16.2481ZM100.895 97.4035C123.571 96.543 140.4 76.8168 136.957 52.2583C134.358 33.5912 118.178 19.4254 101.349 20.2198C119.153 46.036 119.153 71.7197 100.895 97.4035Z" fill="#252E60"/>
<path d="M182.605 50H176.98L187.222 20.9091H193.727L203.983 50H198.358L190.588 26.875H190.361L182.605 50ZM182.79 38.5938H198.131V42.8267H182.79V38.5938ZM207.815 50V20.9091H213.085V45.5824H225.897V50H207.815ZM225.482 25.3267V20.9091H248.692V25.3267H239.7V50H234.473V25.3267H225.482ZM253.386 50H247.761L258.003 20.9091H264.509L274.764 50H269.139L261.369 26.875H261.142L253.386 50ZM253.571 38.5938H268.912V42.8267H253.571V38.5938ZM278.596 50V20.9091H289.505C291.74 20.9091 293.615 21.2973 295.13 22.0739C296.655 22.8504 297.805 23.9394 298.582 25.3409C299.368 26.733 299.761 28.357 299.761 30.2131C299.761 32.0786 299.363 33.6979 298.567 35.071C297.781 36.4347 296.621 37.4905 295.087 38.2386C293.553 38.9773 291.669 39.3466 289.434 39.3466H281.664V34.9716H288.724C290.031 34.9716 291.101 34.7917 291.934 34.4318C292.767 34.0625 293.383 33.5275 293.781 32.8267C294.188 32.1165 294.391 31.2453 294.391 30.2131C294.391 29.1809 294.188 28.3002 293.781 27.571C293.373 26.8324 292.753 26.2737 291.92 25.8949C291.086 25.5066 290.012 25.3125 288.695 25.3125H283.866V50H278.596ZM293.624 36.8182L300.826 50H294.945L287.871 36.8182H293.624ZM309.881 20.9091V50H304.612V20.9091H309.881ZM326.426 40.2273H331.199L334.026 43.892L336.043 46.2784L340.886 52.5H335.773L332.477 48.3239L331.071 46.3352L326.426 40.2273ZM341.582 35.4545C341.582 38.589 340.995 41.2737 339.821 43.5085C338.656 45.7339 337.065 47.4384 335.048 48.6222C333.041 49.8059 330.763 50.3977 328.216 50.3977C325.669 50.3977 323.386 49.8059 321.369 48.6222C319.362 47.429 317.771 45.7197 316.597 43.4943C315.432 41.2595 314.849 38.5795 314.849 35.4545C314.849 32.3201 315.432 29.6402 316.597 27.4148C317.771 25.1799 319.362 23.4706 321.369 22.2869C323.386 21.1032 325.669 20.5114 328.216 20.5114C330.763 20.5114 333.041 21.1032 335.048 22.2869C337.065 23.4706 338.656 25.1799 339.821 27.4148C340.995 29.6402 341.582 32.3201 341.582 35.4545ZM336.284 35.4545C336.284 33.2481 335.938 31.3873 335.247 29.8722C334.565 28.3475 333.618 27.197 332.406 26.4205C331.194 25.6345 329.797 25.2415 328.216 25.2415C326.634 25.2415 325.238 25.6345 324.026 26.4205C322.813 27.197 321.862 28.3475 321.17 29.8722C320.489 31.3873 320.148 33.2481 320.148 35.4545C320.148 37.661 320.489 39.5265 321.17 41.0511C321.862 42.5663 322.813 43.7169 324.026 44.5028C325.238 45.2794 326.634 45.6676 328.216 45.6676C329.797 45.6676 331.194 45.2794 332.406 44.5028C333.618 43.7169 334.565 42.5663 335.247 41.0511C335.938 39.5265 336.284 37.661 336.284 35.4545ZM360.261 50H354.636L364.878 20.9091H371.384L381.639 50H376.014L368.244 26.875H368.017L360.261 50ZM360.446 38.5938H375.787V42.8267H360.446V38.5938ZM385.471 50V20.9091H390.741V45.5824H403.553V50H385.471ZM408.127 20.9091H414.576L423.212 41.9886H423.553L432.19 20.9091H438.638V50H433.582V30.0142H433.312L425.272 49.9148H421.494L413.454 29.9716H413.184V50H408.127V20.9091ZM470.371 35.4545C470.371 38.589 469.784 41.2737 468.61 43.5085C467.445 45.7339 465.854 47.4384 463.837 48.6222C461.83 49.8059 459.552 50.3977 457.005 50.3977C454.458 50.3977 452.175 49.8059 450.158 48.6222C448.151 47.429 446.56 45.7197 445.386 43.4943C444.221 41.2595 443.638 38.5795 443.638 35.4545C443.638 32.3201 444.221 29.6402 445.386 27.4148C446.56 25.1799 448.151 23.4706 450.158 22.2869C452.175 21.1032 454.458 20.5114 457.005 20.5114C459.552 20.5114 461.83 21.1032 463.837 22.2869C465.854 23.4706 467.445 25.1799 468.61 27.4148C469.784 29.6402 470.371 32.3201 470.371 35.4545ZM465.073 35.4545C465.073 33.2481 464.728 31.3873 464.036 29.8722C463.354 28.3475 462.407 27.197 461.195 26.4205C459.983 25.6345 458.586 25.2415 457.005 25.2415C455.424 25.2415 454.027 25.6345 452.815 26.4205C451.603 27.197 450.651 28.3475 449.96 29.8722C449.278 31.3873 448.937 33.2481 448.937 35.4545C448.937 37.661 449.278 39.5265 449.96 41.0511C450.651 42.5663 451.603 43.7169 452.815 44.5028C454.027 45.2794 455.424 45.6676 457.005 45.6676C458.586 45.6676 459.983 45.2794 461.195 44.5028C462.407 43.7169 463.354 42.5663 464.036 41.0511C464.728 39.5265 465.073 37.661 465.073 35.4545ZM475.354 50V20.9091H486.49C488.592 20.9091 490.339 21.2405 491.732 21.9034C493.133 22.5568 494.179 23.4517 494.871 24.5881C495.571 25.7244 495.922 27.0123 495.922 28.4517C495.922 29.6354 495.695 30.6487 495.24 31.4915C494.786 32.3248 494.175 33.0019 493.408 33.5227C492.641 34.0436 491.784 34.4176 490.837 34.6449V34.929C491.869 34.9858 492.858 35.303 493.805 35.8807C494.762 36.4489 495.543 37.2538 496.149 38.2955C496.755 39.3371 497.058 40.5966 497.058 42.0739C497.058 43.5795 496.694 44.9337 495.964 46.1364C495.235 47.3295 494.137 48.2718 492.669 48.9631C491.201 49.6544 489.355 50 487.129 50H475.354ZM480.624 45.5966H486.291C488.204 45.5966 489.582 45.232 490.425 44.5028C491.277 43.7642 491.703 42.8172 491.703 41.6619C491.703 40.8002 491.49 40.0237 491.064 39.3324C490.638 38.6316 490.032 38.0824 489.246 37.6847C488.46 37.2775 487.522 37.0739 486.433 37.0739H480.624V45.5966ZM480.624 33.2812H485.837C486.746 33.2812 487.565 33.1155 488.294 32.7841C489.023 32.4432 489.596 31.965 490.013 31.3494C490.439 30.7244 490.652 29.9858 490.652 29.1335C490.652 28.0066 490.254 27.0786 489.459 26.3494C488.673 25.6203 487.503 25.2557 485.95 25.2557H480.624V33.2812ZM505.379 50H499.754L509.995 20.9091H516.501L526.756 50H521.131L513.362 26.875H513.134L505.379 50ZM505.563 38.5938H520.904V42.8267H505.563V38.5938ZM545.929 28.9062C545.796 27.6657 545.238 26.6998 544.253 26.0085C543.277 25.3172 542.009 24.9716 540.446 24.9716C539.348 24.9716 538.405 25.1373 537.619 25.4688C536.833 25.8002 536.232 26.25 535.815 26.8182C535.399 27.3864 535.186 28.035 535.176 28.7642C535.176 29.3703 535.313 29.8958 535.588 30.3409C535.872 30.786 536.256 31.1648 536.739 31.4773C537.222 31.7803 537.757 32.036 538.344 32.2443C538.931 32.4527 539.523 32.6278 540.119 32.7699L542.847 33.4517C543.945 33.7074 545.001 34.053 546.014 34.4886C547.037 34.9242 547.951 35.4735 548.756 36.1364C549.57 36.7992 550.214 37.5994 550.688 38.5369C551.161 39.4744 551.398 40.5729 551.398 41.8324C551.398 43.5369 550.962 45.0379 550.091 46.3352C549.22 47.6231 547.96 48.6316 546.312 49.3608C544.674 50.0805 542.69 50.4403 540.361 50.4403C538.098 50.4403 536.133 50.09 534.466 49.3892C532.809 48.6884 531.511 47.6657 530.574 46.321C529.646 44.9763 529.144 43.3381 529.068 41.4062H534.253C534.329 42.4195 534.641 43.2623 535.19 43.9347C535.74 44.607 536.455 45.1089 537.335 45.4403C538.225 45.7718 539.22 45.9375 540.318 45.9375C541.464 45.9375 542.468 45.767 543.33 45.4261C544.201 45.0758 544.883 44.5928 545.375 43.9773C545.867 43.3523 546.118 42.6231 546.128 41.7898C546.118 41.0322 545.896 40.4072 545.46 39.9148C545.025 39.4129 544.414 38.9962 543.628 38.6648C542.851 38.3239 541.942 38.0208 540.901 37.7557L537.591 36.9034C535.195 36.2879 533.301 35.3551 531.909 34.1051C530.527 32.8456 529.835 31.1742 529.835 29.0909C529.835 27.3769 530.299 25.8759 531.227 24.5881C532.165 23.3002 533.438 22.3011 535.048 21.5909C536.658 20.8712 538.481 20.5114 540.517 20.5114C542.581 20.5114 544.39 20.8712 545.943 21.5909C547.506 22.3011 548.732 23.2907 549.622 24.5597C550.512 25.8191 550.972 27.268 551 28.9062H545.929ZM556.096 50V20.9091H561.366V33.2244H574.846V20.9091H580.13V50H574.846V37.642H561.366V50H556.096ZM585.862 50V20.9091H604.782V25.3267H591.131V33.2244H603.802V37.642H591.131V45.5824H604.896V50H585.862ZM610.158 50V20.9091H621.067C623.302 20.9091 625.177 21.2973 626.692 22.0739C628.217 22.8504 629.368 23.9394 630.144 25.3409C630.93 26.733 631.323 28.357 631.323 30.2131C631.323 32.0786 630.925 33.6979 630.13 35.071C629.344 36.4347 628.184 37.4905 626.65 38.2386C625.116 38.9773 623.231 39.3466 620.996 39.3466H613.227V34.9716H620.286C621.593 34.9716 622.663 34.7917 623.496 34.4318C624.33 34.0625 624.945 33.5275 625.343 32.8267C625.75 32.1165 625.954 31.2453 625.954 30.2131C625.954 29.1809 625.75 28.3002 625.343 27.571C624.936 26.8324 624.316 26.2737 623.482 25.8949C622.649 25.5066 621.574 25.3125 620.258 25.3125H615.428V50H610.158ZM625.187 36.8182L632.388 50H626.508L619.434 36.8182H625.187Z" fill="#252E60"/>
<path d="M183.375 98H176.642V76.1818H183.673C185.79 76.1818 187.601 76.6186 189.107 77.4922C190.612 78.3587 191.766 79.6051 192.569 81.2315C193.371 82.8509 193.773 84.7898 193.773 87.0483C193.773 89.321 193.368 91.2777 192.558 92.9183C191.749 94.5518 190.57 95.8089 189.021 96.6896C187.473 97.5632 185.591 98 183.375 98ZM179.284 95.6562H183.205C185.009 95.6562 186.504 95.3082 187.69 94.6122C188.876 93.9162 189.76 92.9254 190.342 91.6399C190.925 90.3544 191.216 88.8239 191.216 87.0483C191.216 85.2869 190.928 83.7706 190.353 82.4993C189.778 81.2209 188.918 80.2408 187.775 79.5589C186.631 78.87 185.207 78.5256 183.503 78.5256H179.284V95.6562ZM201.987 76.1818V98H199.345V76.1818H201.987ZM223.339 83C223.104 82.2827 222.795 81.6399 222.412 81.0717C222.036 80.4964 221.585 80.0064 221.059 79.6016C220.54 79.1967 219.951 78.8878 219.29 78.6747C218.63 78.4616 217.906 78.3551 217.117 78.3551C215.825 78.3551 214.649 78.6889 213.591 79.3565C212.533 80.0241 211.691 81.0078 211.066 82.3075C210.441 83.6072 210.129 85.2017 210.129 87.0909C210.129 88.9801 210.445 90.5746 211.077 91.8743C211.709 93.174 212.565 94.1577 213.644 94.8253C214.724 95.4929 215.938 95.8267 217.288 95.8267C218.538 95.8267 219.638 95.5604 220.59 95.0277C221.549 94.4879 222.295 93.728 222.827 92.7479C223.367 91.7607 223.637 90.5994 223.637 89.2642L224.447 89.4347H217.884V87.0909H226.194V89.4347C226.194 91.2315 225.81 92.794 225.043 94.1222C224.283 95.4503 223.232 96.4801 221.89 97.2116C220.555 97.9361 219.021 98.2983 217.288 98.2983C215.356 98.2983 213.658 97.8438 212.195 96.9347C210.739 96.0256 209.603 94.733 208.786 93.0568C207.977 91.3807 207.572 89.392 207.572 87.0909C207.572 85.3651 207.803 83.8132 208.264 82.4354C208.733 81.0504 209.393 79.8714 210.246 78.8984C211.098 77.9254 212.107 77.1797 213.271 76.6612C214.436 76.1428 215.718 75.8835 217.117 75.8835C218.268 75.8835 219.34 76.0575 220.335 76.4055C221.336 76.7464 222.227 77.233 223.009 77.8651C223.797 78.4901 224.454 79.2393 224.979 80.1129C225.505 80.9794 225.867 81.9418 226.066 83H223.339ZM234.501 76.1818V98H231.859V76.1818H234.501ZM239.745 78.5256V76.1818H256.109V78.5256H249.248V98H246.606V78.5256H239.745ZM259.672 98H256.903L264.914 76.1818H267.641L275.653 98H272.883L266.363 79.6335H266.192L259.672 98ZM260.695 89.4773H271.86V91.821H260.695V89.4773ZM280.191 98V76.1818H282.833V95.6562H292.975V98H280.191ZM307.784 76.1818H310.937L318.352 94.2926H318.607L326.022 76.1818H329.176V98H326.704V81.4233H326.491L319.673 98H317.286L310.468 81.4233H310.255V98H307.784V76.1818ZM336.508 98H333.738L341.749 76.1818H344.477L352.488 98H349.718L343.198 79.6335H343.028L336.508 98ZM337.531 89.4773H348.695V91.821H337.531V89.4773ZM357.026 98V76.1818H364.399C366.103 76.1818 367.502 76.473 368.596 77.0554C369.69 77.6307 370.499 78.4226 371.025 79.4311C371.551 80.4396 371.813 81.5866 371.813 82.8722C371.813 84.1577 371.551 85.2976 371.025 86.2919C370.499 87.2862 369.693 88.0675 368.607 88.6357C367.52 89.1967 366.132 89.4773 364.441 89.4773H358.475V87.0909H364.356C365.521 87.0909 366.458 86.9205 367.168 86.5795C367.886 86.2386 368.404 85.7557 368.724 85.1307C369.051 84.4986 369.214 83.7457 369.214 82.8722C369.214 81.9986 369.051 81.2351 368.724 80.5817C368.397 79.9283 367.875 79.424 367.158 79.0689C366.44 78.7067 365.492 78.5256 364.313 78.5256H359.668V98H357.026ZM367.296 88.1989L372.666 98H369.597L364.313 88.1989H367.296ZM377.356 98V76.1818H379.998V87.0057H380.254L390.055 76.1818H393.506L384.345 86.0256L393.506 98H390.31L382.725 87.858L379.998 90.9261V98H377.356ZM398.066 98V76.1818H411.234V78.5256H400.708V85.8977H410.552V88.2415H400.708V95.6562H411.404V98H398.066ZM415.943 78.5256V76.1818H432.306V78.5256H425.446V98H422.803V78.5256H415.943ZM440.166 76.1818V98H437.524V76.1818H440.166ZM463.905 76.1818V98H461.348L449.458 80.8693H449.245V98H446.603V76.1818H449.16L461.092 93.3551H461.305V76.1818H463.905ZM485.246 83C485.012 82.2827 484.703 81.6399 484.319 81.0717C483.943 80.4964 483.492 80.0064 482.966 79.6016C482.448 79.1967 481.858 78.8878 481.198 78.6747C480.537 78.4616 479.813 78.3551 479.024 78.3551C477.732 78.3551 476.556 78.6889 475.498 79.3565C474.44 80.0241 473.598 81.0078 472.973 82.3075C472.348 83.6072 472.036 85.2017 472.036 87.0909C472.036 88.9801 472.352 90.5746 472.984 91.8743C473.616 93.174 474.472 94.1577 475.551 94.8253C476.631 95.4929 477.845 95.8267 479.195 95.8267C480.445 95.8267 481.546 95.5604 482.497 95.0277C483.456 94.4879 484.202 93.728 484.735 92.7479C485.274 91.7607 485.544 90.5994 485.544 89.2642L486.354 89.4347H479.791V87.0909H488.101V89.4347C488.101 91.2315 487.718 92.794 486.951 94.1222C486.191 95.4503 485.139 96.4801 483.797 97.2116C482.462 97.9361 480.928 98.2983 479.195 98.2983C477.263 98.2983 475.566 97.8438 474.103 96.9347C472.647 96.0256 471.51 94.733 470.693 93.0568C469.884 91.3807 469.479 89.392 469.479 87.0909C469.479 85.3651 469.71 83.8132 470.171 82.4354C470.64 81.0504 471.301 79.8714 472.153 78.8984C473.005 77.9254 474.014 77.1797 475.179 76.6612C476.343 76.1428 477.625 75.8835 479.024 75.8835C480.175 75.8835 481.247 76.0575 482.242 76.4055C483.243 76.7464 484.135 77.233 484.916 77.8651C485.704 78.4901 486.361 79.2393 486.887 80.1129C487.412 80.9794 487.774 81.9418 487.973 83H485.246ZM520.9 83H518.258C518.102 82.2401 517.829 81.5724 517.438 80.9972C517.055 80.4219 516.586 79.9389 516.032 79.5483C515.485 79.1506 514.878 78.8523 514.21 78.6534C513.543 78.4545 512.847 78.3551 512.122 78.3551C510.801 78.3551 509.604 78.6889 508.532 79.3565C507.467 80.0241 506.618 81.0078 505.986 82.3075C505.361 83.6072 505.048 85.2017 505.048 87.0909C505.048 88.9801 505.361 90.5746 505.986 91.8743C506.618 93.174 507.467 94.1577 508.532 94.8253C509.604 95.4929 510.801 95.8267 512.122 95.8267C512.847 95.8267 513.543 95.7273 514.21 95.5284C514.878 95.3295 515.485 95.0348 516.032 94.6442C516.586 94.2464 517.055 93.7599 517.438 93.1847C517.829 92.6023 518.102 91.9347 518.258 91.1818H520.9C520.702 92.2969 520.339 93.2947 519.814 94.1754C519.288 95.0561 518.635 95.8054 517.854 96.4233C517.072 97.0341 516.195 97.4993 515.222 97.8189C514.256 98.1385 513.223 98.2983 512.122 98.2983C510.261 98.2983 508.606 97.8438 507.158 96.9347C505.709 96.0256 504.569 94.733 503.738 93.0568C502.907 91.3807 502.491 89.392 502.491 87.0909C502.491 84.7898 502.907 82.8011 503.738 81.125C504.569 79.4489 505.709 78.1562 507.158 77.2472C508.606 76.3381 510.261 75.8835 512.122 75.8835C513.223 75.8835 514.256 76.0433 515.222 76.3629C516.195 76.6825 517.072 77.1513 517.854 77.7692C518.635 78.38 519.288 79.1257 519.814 80.0064C520.339 80.88 520.702 81.8778 520.9 83ZM544.719 87.0909C544.719 89.392 544.303 91.3807 543.473 93.0568C542.642 94.733 541.502 96.0256 540.053 96.9347C538.604 97.8438 536.949 98.2983 535.088 98.2983C533.227 98.2983 531.573 97.8438 530.124 96.9347C528.675 96.0256 527.535 94.733 526.704 93.0568C525.873 91.3807 525.458 89.392 525.458 87.0909C525.458 84.7898 525.873 82.8011 526.704 81.125C527.535 79.4489 528.675 78.1562 530.124 77.2472C531.573 76.3381 533.227 75.8835 535.088 75.8835C536.949 75.8835 538.604 76.3381 540.053 77.2472C541.502 78.1562 542.642 79.4489 543.473 81.125C544.303 82.8011 544.719 84.7898 544.719 87.0909ZM542.162 87.0909C542.162 85.2017 541.846 83.6072 541.214 82.3075C540.589 81.0078 539.74 80.0241 538.668 79.3565C537.602 78.6889 536.409 78.3551 535.088 78.3551C533.767 78.3551 532.571 78.6889 531.498 79.3565C530.433 80.0241 529.584 81.0078 528.952 82.3075C528.327 83.6072 528.014 85.2017 528.014 87.0909C528.014 88.9801 528.327 90.5746 528.952 91.8743C529.584 93.174 530.433 94.1577 531.498 94.8253C532.571 95.4929 533.767 95.8267 535.088 95.8267C536.409 95.8267 537.602 95.4929 538.668 94.8253C539.74 94.1577 540.589 93.174 541.214 91.8743C541.846 90.5746 542.162 88.9801 542.162 87.0909ZM559.879 98V76.1818H562.521V95.6562H572.663V98H559.879ZM579.385 98.1705C578.86 98.1705 578.409 97.9822 578.032 97.6058C577.656 97.2294 577.468 96.7784 577.468 96.2528C577.468 95.7273 577.656 95.2763 578.032 94.8999C578.409 94.5234 578.86 94.3352 579.385 94.3352C579.911 94.3352 580.362 94.5234 580.738 94.8999C581.115 95.2763 581.303 95.7273 581.303 96.2528C581.303 96.6009 581.214 96.9205 581.037 97.2116C580.866 97.5028 580.635 97.7372 580.344 97.9148C580.06 98.0852 579.74 98.1705 579.385 98.1705ZM587.296 98V76.1818H589.938V95.6562H600.08V98H587.296ZM606.802 98.1705C606.277 98.1705 605.826 97.9822 605.449 97.6058C605.073 97.2294 604.884 96.7784 604.884 96.2528C604.884 95.7273 605.073 95.2763 605.449 94.8999C605.826 94.5234 606.277 94.3352 606.802 94.3352C607.328 94.3352 607.779 94.5234 608.155 94.8999C608.532 95.2763 608.72 95.7273 608.72 96.2528C608.72 96.6009 608.631 96.9205 608.453 97.2116C608.283 97.5028 608.052 97.7372 607.761 97.9148C607.477 98.0852 607.157 98.1705 606.802 98.1705ZM632.269 83H629.627C629.471 82.2401 629.197 81.5724 628.807 80.9972C628.423 80.4219 627.955 79.9389 627.401 79.5483C626.854 79.1506 626.246 78.8523 625.579 78.6534C624.911 78.4545 624.215 78.3551 623.491 78.3551C622.17 78.3551 620.973 78.6889 619.901 79.3565C618.835 80.0241 617.987 81.0078 617.354 82.3075C616.729 83.6072 616.417 85.2017 616.417 87.0909C616.417 88.9801 616.729 90.5746 617.354 91.8743C617.987 93.174 618.835 94.1577 619.901 94.8253C620.973 95.4929 622.17 95.8267 623.491 95.8267C624.215 95.8267 624.911 95.7273 625.579 95.5284C626.246 95.3295 626.854 95.0348 627.401 94.6442C627.955 94.2464 628.423 93.7599 628.807 93.1847C629.197 92.6023 629.471 91.9347 629.627 91.1818H632.269C632.07 92.2969 631.708 93.2947 631.183 94.1754C630.657 95.0561 630.004 95.8054 629.222 96.4233C628.441 97.0341 627.564 97.4993 626.591 97.8189C625.625 98.1385 624.592 98.2983 623.491 98.2983C621.63 98.2983 619.975 97.8438 618.526 96.9347C617.077 96.0256 615.938 94.733 615.107 93.0568C614.276 91.3807 613.86 89.392 613.86 87.0909C613.86 84.7898 614.276 82.8011 615.107 81.125C615.938 79.4489 617.077 78.1562 618.526 77.2472C619.975 76.3381 621.63 75.8835 623.491 75.8835C624.592 75.8835 625.625 76.0433 626.591 76.3629C627.564 76.6825 628.441 77.1513 629.222 77.7692C630.004 78.38 630.657 79.1257 631.183 80.0064C631.708 80.88 632.07 81.8778 632.269 83Z" fill="#252E60"/>
</svg>
