<svg width="25" height="16" viewBox="0 0 25 16" fill="none" xmlns="http://www.w3.org/2000/svg">
<path d="M6.74963 1.6549L0.739051 13.4743C0.400734 14.1395 0.884057 14.9276 1.63042 14.9276H22.8075C23.654 14.9276 24.1176 13.9414 23.5775 13.2895L17.1958 5.58773C16.8802 5.20682 16.3335 5.11392 15.9098 5.3692L13.3332 6.92146C12.8814 7.19367 12.2958 7.06811 11.9953 6.63459L8.46285 1.5385C8.03171 0.916525 7.09268 0.980326 6.74963 1.6549Z" stroke="white" stroke-linecap="round"/>
<path d="M16.6989 1.46032C16.6989 2.02772 16.2819 2.42064 15.847 2.42064C15.4121 2.42064 14.9951 2.02772 14.9951 1.46032C14.9951 0.892924 15.4121 0.5 15.847 0.5C16.2819 0.5 16.6989 0.892924 16.6989 1.46032Z" stroke="white"/>
</svg>
